<svg width="150" height="109" viewBox="0 0 150 109" fill="none" xmlns="http://www.w3.org/2000/svg">
<path d="M40.9598 49.0533C41.3118 49.749 41.7287 50.5368 41.8965 50.8481C42.1483 51.3056 42.1835 51.8119 42.1104 53.7286C42.0129 56.2733 42.1673 56.9231 43.1093 58.1278C43.9648 59.235 44.9151 59.6844 47.3921 60.1392C48.6402 60.3639 49.7988 60.5697 49.9613 60.5778C50.2645 60.5778 50.2943 60.2665 50.4459 56.3248C50.6218 51.6657 50.5433 50.9104 49.7095 49.7463C49.3366 49.2755 48.8772 48.8804 48.3559 48.5822C47.495 48.1193 47.3515 48.0949 43.9107 47.965L40.3345 47.8296L40.9598 49.0533Z" fill="#FDD108"/>
<path d="M25.8673 68.4121C25.4937 69.0889 25.0551 69.855 24.871 70.1555C24.6003 70.6022 24.5489 71.1003 24.5489 73.0035C24.5489 75.532 24.3702 76.1736 23.3929 77.335C22.5022 78.4044 21.5412 78.8131 19.0614 79.1678C17.8161 79.3465 16.6574 79.5062 16.4977 79.5062C16.1945 79.5062 16.1782 79.1867 16.1782 75.2694C16.1782 70.6428 16.2838 69.8956 17.1555 68.7722C17.5441 68.3199 18.0155 67.9459 18.5443 67.6703C19.416 67.2426 19.5595 67.2236 22.9787 67.2236H26.5278L25.8673 68.4121Z" fill="#FDD108"/>
<path d="M25.5914 30.9044C25.253 31.5162 24.8496 32.212 24.6872 32.4854C24.4463 32.8888 24.3975 33.3409 24.3975 35.0654C24.3975 37.3556 24.2351 37.9377 23.3498 38.9854C22.5377 39.9518 21.6714 40.3227 19.4298 40.6449C18.3009 40.8073 17.2641 40.9535 17.1071 40.9535C16.8363 40.9535 16.8174 40.6611 16.8174 37.1147C16.8174 32.9213 16.9148 32.2417 17.7053 31.2265C18.0561 30.8161 18.4826 30.4769 18.9615 30.2276C19.752 29.8405 19.8819 29.8242 22.979 29.8242H26.187L25.5914 30.9044Z" fill="#FDD108"/>
<path d="M19.3159 26.1151C18.0295 26.3625 16.8273 26.9335 15.8227 27.7742C14.8181 28.6149 14.0442 29.6977 13.5739 30.9203C13.2844 31.772 13.138 32.6658 13.1408 33.5653L13.0758 35.306H6.49463V39.0176L9.76763 39.0501L13.0163 39.0961L13.065 42.2256L13.0975 45.3389L13.6389 45.2414C13.9096 45.1927 15.8805 44.9355 17.9948 44.6458C19.5942 44.4636 21.1822 44.1925 22.7514 43.8337C24.0283 43.3738 25.1708 42.6035 26.0758 41.5921C27.5756 39.9678 28.2686 38.0105 28.2686 35.3493V33.855L30.1637 30.4358C31.2357 28.5488 32.213 26.7648 32.3646 26.4697L32.6353 25.9526L26.3005 25.9689C22.8163 25.9851 19.6706 26.0501 19.3159 26.1151ZM25.5912 30.9041C25.2528 31.5159 24.8494 32.2117 24.687 32.4851C24.4461 32.8885 24.3973 33.3406 24.3973 35.0651C24.3973 37.3554 24.2349 37.9374 23.3496 38.9851C22.5375 39.9516 21.6712 40.3224 19.4296 40.6446C18.3007 40.807 17.2639 40.9532 17.1068 40.9532C16.8361 40.9532 16.8172 40.6608 16.8172 37.1144C16.8172 32.921 16.9146 32.2415 17.7051 31.2263C18.0559 30.8158 18.4824 30.4767 18.9613 30.2273C19.7518 29.8402 19.8817 29.8239 22.9787 29.8239H26.1868L25.5912 30.9041Z" fill="#5A5A5A"/>
<path d="M20.4614 32.0001C20.3279 32.1285 20.221 32.282 20.1469 32.4517C20.0727 32.6214 20.0327 32.8041 20.0291 32.9893C20.0255 33.1745 20.0584 33.3585 20.126 33.531C20.1935 33.7035 20.2944 33.8609 20.4228 33.9944L20.4289 34.0007C20.6265 34.187 20.8741 34.3117 21.1414 34.3596C21.4087 34.4074 21.6841 34.3762 21.934 34.27C22.1839 34.1637 22.3974 33.9869 22.5484 33.7612C22.6994 33.5354 22.7813 33.2706 22.7842 32.9991C22.7871 32.7287 22.71 32.4636 22.5626 32.237C22.4152 32.0104 22.204 31.8325 21.9556 31.7257C21.7073 31.6189 21.4329 31.588 21.167 31.6368C20.9011 31.6856 20.6556 31.812 20.4614 32.0001Z" fill="#5A5A5A"/>
<path d="M130.925 35.0484C126.667 36.0338 124.409 38.63 123.765 43.2593C123.524 44.9676 123.524 67.2424 123.765 68.9777C124.328 73.0899 126.345 75.7457 129.796 76.88C130.941 77.2509 131.345 77.2996 133.427 77.3159C134.551 77.3878 135.68 77.3012 136.781 77.0587C137.966 76.7761 139.074 76.2365 140.026 75.4782C140.979 74.7198 141.754 73.7612 142.295 72.6703C143.522 70.0904 143.506 70.3638 143.506 56.1239C143.506 44.3612 143.478 43.3541 143.208 42.1602C142.396 38.5975 140.465 36.3722 137.336 35.3543C135.242 34.8197 133.061 34.7156 130.925 35.0484ZM135.571 41.3237C135.957 41.645 136.284 42.0317 136.537 42.4661L136.892 43.1429V56.1375C136.892 69.1049 136.892 69.132 136.553 69.7655C135.925 70.9431 134.989 71.4602 133.521 71.4602C133.095 71.5043 132.663 71.4502 132.261 71.3019C131.858 71.1536 131.495 70.9151 131.199 70.6047C130.183 69.6193 130.2 69.8142 130.2 56.1375C130.2 42.4607 130.183 42.6286 131.199 41.654C131.94 40.9284 132.36 40.7985 133.765 40.8418C134.815 40.8716 135.054 40.9365 135.571 41.3237V41.3237Z" fill="#5A5A5A"/>
<path d="M30.5264 37.1633V39.0177H60.5248V35.3062H30.5264V37.1633Z" fill="#5A5A5A"/>
<path d="M75.5279 56.0971C75.5279 67.5485 75.5441 76.9181 75.5766 76.9181C75.6091 76.9181 76.4294 76.8044 77.431 76.6772C80.1545 76.3226 81.0099 75.838 81.7625 74.257L82.1497 73.4448V59.9521L84.134 60.0171C86.3269 60.0956 86.779 60.2418 87.6019 61.1758C88.5522 62.2749 88.6334 62.8001 88.7633 69.5681C88.8445 73.9727 88.9393 75.8759 89.0855 76.2955L89.2966 76.9073H92.5832C93.6759 76.956 94.7708 76.9125 95.8562 76.7774C95.7838 76.4665 95.6934 76.16 95.5855 75.8596C95.377 75.1991 95.3147 73.924 95.2146 68.7641C95.1144 63.6041 95.0521 62.2939 94.8274 61.5223C94.2156 59.3565 93.3926 58.1491 91.8928 57.1908L90.8289 56.5438L91.4272 56.2351C92.566 55.5302 93.496 54.5339 94.1209 53.3493C94.9763 51.5436 95.1198 50.5906 95.1036 46.4459C95.1036 43.3976 95.0548 42.4474 94.8329 41.5432C94.0207 38.3487 92.3639 36.6242 89.1477 35.7038C88.3356 35.4628 87.2527 35.4141 81.8573 35.3491L75.5278 35.2896L75.5279 56.0971ZM86.9793 41.6298C87.4899 41.8671 87.8927 42.2873 88.1082 42.8074C88.5224 43.5979 88.5224 43.6764 88.5224 47.564C88.5224 51.3378 88.5062 51.549 88.1651 52.1662C87.9673 52.561 87.6932 52.9126 87.3586 53.2007C87.0241 53.4889 86.6356 53.7077 86.2159 53.8447C85.4472 53.9607 84.6704 54.0142 83.8931 54.0044H82.1497V41.2752H84.1909C86.0237 41.2752 86.3567 41.3239 86.9766 41.6298H86.9793Z" fill="#5A5A5A"/>
<path d="M98.7505 35.3548C98.8922 35.6764 99.0531 35.9892 99.2324 36.2914L99.717 37.1632V76.9346L106.136 76.8696C111.621 76.8209 112.668 76.7722 113.491 76.5312C117.216 75.4348 119.176 72.9198 119.718 68.5152C119.845 67.4513 119.877 63.5475 119.845 55.1444C119.764 41.936 119.78 42.1498 118.635 39.8243C117.62 37.7587 115.928 36.4051 113.475 35.6769C112.663 35.436 111.556 35.4062 105.651 35.3385C101.845 35.306 98.7505 35.3223 98.7505 35.3548ZM111.604 41.5813C112.088 41.8174 112.483 42.2015 112.733 42.6777L113.185 43.452V68.7751L112.749 69.5331C112.04 70.7243 111.396 70.9517 108.621 70.9517H106.331V41.2754H108.637C110.524 41.2754 111.038 41.3404 111.604 41.5813Z" fill="#5A5A5A"/>
<path d="M34.3977 45.0655C34.3977 45.1143 35.3804 46.8875 36.5635 49.0316C38.3204 52.1774 38.7292 53.0491 38.7292 53.5499V54.178H6.49463V58.0493H22.9138L39.3167 58.0655L39.6876 58.856C40.654 60.6368 42.219 62.0186 44.1057 62.7571C47.2295 63.3927 50.384 63.8671 53.5566 64.1784H53.9112V58.1684C53.9112 54.5407 53.849 51.7659 53.7352 51.1865C53.5152 50.0884 53.0632 49.0499 52.4096 48.1405C51.756 47.231 50.9158 46.4716 49.9452 45.9129C48.1395 44.9952 47.9283 44.9924 40.8977 44.9924C37.3161 44.9844 34.3977 45.0168 34.3977 45.0655ZM47.3327 48.9206C47.8322 49.0567 48.2967 49.2985 48.6946 49.6296C49.0925 49.9608 49.4147 50.3735 49.6392 50.84C50.0426 51.6522 50.0426 51.6765 50.0426 55.8239V59.9687L49.6068 59.9037C49.336 59.855 48.3804 59.7088 47.4275 59.5815C45.462 59.3108 44.4495 58.9183 43.7348 58.0818C42.7846 57.0151 42.5735 56.2571 42.4625 53.8558L42.3812 51.6901L41.6232 50.304C41.33 49.823 41.0713 49.3218 40.849 48.8042C40.849 48.5822 46.5747 48.6932 47.3327 48.9206Z" fill="#5A5A5A"/>
<path d="M44.5576 51.0322C44.3714 51.227 44.2462 51.4719 44.1973 51.7369C44.1484 52.0019 44.1779 52.2754 44.2823 52.5238C44.3867 52.7722 44.5613 52.9848 44.7848 53.1353C45.0083 53.2858 45.2708 53.3678 45.5403 53.3712C46.1223 53.3712 46.9778 52.6132 46.9778 52.0799C46.9573 51.8163 46.8822 51.5599 46.7573 51.3268C46.6324 51.0938 46.4604 50.8893 46.2523 50.7263C45.9695 50.6133 45.6607 50.5821 45.361 50.6362C45.0614 50.6903 44.783 50.8275 44.5576 51.0322Z" fill="#5A5A5A"/>
<path d="M56.2013 56.0647L56.25 57.9597L58.3968 58.0084L60.5247 58.0572V54.1777H56.1553L56.2013 56.0647Z" fill="#5A5A5A"/>
<path d="M18.4063 64.1621C17.2351 64.5218 16.1748 65.174 15.3255 66.0571C13.8095 67.5569 13.2924 68.8455 13.1327 71.3469L13.0352 73.1202L9.78658 73.1689L6.49463 73.2095V76.9184H13.1083V79.9829C13.1083 82.4816 13.157 83.0475 13.333 83.0475C13.4467 83.0475 15.4311 82.8065 17.7349 82.506C19.4583 82.3235 21.1669 82.0223 22.8488 81.6045C24.205 81.0963 25.4049 80.2428 26.3299 79.1283C27.2548 78.0139 27.8727 76.6773 28.1224 75.2507C28.2231 74.5332 28.272 73.8095 28.2686 73.085V71.7043L30.2368 68.1389C31.3196 66.187 32.2996 64.4301 32.4296 64.2189L32.6543 63.8643L25.9946 63.8805C19.9954 63.8697 19.2185 63.9022 18.4063 64.1621ZM25.445 68.9673C25.1803 69.5055 24.8847 70.0279 24.5598 70.5321C24.4306 71.2773 24.3816 72.0342 24.4136 72.7899C24.4136 74.6606 24.3648 74.999 24.0264 75.7082C23.5159 76.7454 22.6602 77.5724 21.6062 78.0473C20.7187 78.2582 19.8191 78.4146 18.9125 78.5156L16.8172 78.8053L16.8659 74.5956C16.9146 70.8542 16.9471 70.3209 17.2205 69.8228C17.4727 69.317 17.826 68.8684 18.2586 68.5047C18.6913 68.141 19.1939 67.87 19.7355 67.7085C20.8773 67.6008 22.0243 67.5583 23.171 67.5812L26.2193 67.565L25.445 68.9673Z" fill="#5A5A5A"/>
<path d="M21.0111 69.4523C20.739 69.5466 20.5008 69.7193 20.3264 69.9485C20.1521 70.1778 20.0493 70.4534 20.0311 70.7409C19.9844 71.0215 20.038 71.3097 20.1825 71.5548C20.3271 71.7998 20.5534 71.9861 20.8216 72.081C21.1086 72.2116 21.4318 72.2396 21.737 72.1604C22.0423 72.0811 22.311 71.8993 22.4981 71.6455C22.6853 71.3917 22.7796 71.0813 22.7651 70.7663C22.7507 70.4513 22.6284 70.1508 22.4188 69.9152C22.2507 69.7144 22.0298 69.5647 21.781 69.4829C21.5323 69.4011 21.2656 69.3905 21.0111 69.4523Z" fill="#5A5A5A"/>
<path d="M30.5264 75.0639V76.9183H60.5248V73.2095H30.5264V75.0639Z" fill="#5A5A5A"/>
</svg>
