<svg width="146" height="121" viewBox="0 0 146 121" fill="none" xmlns="http://www.w3.org/2000/svg">
<path opacity="0.1" fill-rule="evenodd" clip-rule="evenodd" d="M71.2342 88.561C110.21 88.561 141.807 92.651 141.807 97.6968C141.807 102.743 110.21 106.833 71.2342 106.833C32.2582 106.833 0.663574 102.742 0.663574 97.6968C0.663574 92.6516 32.2582 88.561 71.2342 88.561Z" fill="#FDD108"/>
<path fill-rule="evenodd" clip-rule="evenodd" d="M29.4567 70.6806C30.3279 70.9333 37.0644 70.1746 40.6971 62.8076L37.1581 59.1147C36.777 61.9515 36.1781 69.0943 29.209 69.9323L29.4567 70.6806Z" fill="#7757D9"/>
<path fill-rule="evenodd" clip-rule="evenodd" d="M28.9395 70.3044C29.7458 66.0148 31.5975 60.5628 37.9998 58.0356C38.4898 58.7265 39.9702 61.077 40.6965 62.8071C38.3009 62.1972 32.3456 63.4488 29.4561 70.6802L28.9395 70.3044Z" fill="#9977FF"/>
<path fill-rule="evenodd" clip-rule="evenodd" d="M18.9507 62.1012C19.1086 64.7181 19.5311 66.8886 21.2646 68.0045C23.975 69.7478 27.404 70.6 29.8126 70.8489L29.976 70.4693C28.7433 70.0864 24.0261 67.4438 23.3984 66.1633C22.9274 65.2038 22.2044 63.1493 23.149 60.7671L18.9507 62.1012Z" fill="#7757D9"/>
<path fill-rule="evenodd" clip-rule="evenodd" d="M30.0473 70.7527C30.331 66.077 26.7419 59.8854 21.6937 57.9688L18.9507 62.1014C21.6795 62.3984 29.125 65.7679 29.8132 70.8496L30.0473 70.7527Z" fill="#9977FF"/>
<path d="M43.3372 69.3433H21.4434V94.7023H43.3372V69.3433Z" fill="#40357B"/>
<path d="M44.1677 68.7759H20.6128V73.7596H44.1677V68.7759Z" fill="#40357B"/>
<path d="M34.0743 69.3433H13.6729V94.7023H34.0743V69.3433Z" fill="#5A4CA6"/>
<path d="M34.8483 68.7759H12.8989V73.7596H34.8483V68.7759Z" fill="#5A4CA6"/>
<path d="M34.0743 73.7593H13.6729V74.5951H34.0743V73.7593Z" fill="#40357B"/>
<path d="M43.3371 73.7593H34.0742V74.5951H43.3371V73.7593Z" fill="#40357B"/>
<path d="M25.3962 68.7759H22.3511V94.7022H25.3962V68.7759Z" fill="#9977FF"/>
<path d="M25.3962 73.7593H22.3511V74.5951H25.3962V73.7593Z" fill="#7757D9"/>
<path d="M39.6769 73.7593H37.7354V94.7024H39.6769V73.7593Z" fill="#7757D9"/>
<path d="M39.6769 73.7593H37.7354V74.5951H39.6769V73.7593Z" fill="#6144B8"/>
<path d="M40.507 68.7759H38.5654V73.7596H40.507V68.7759Z" fill="#7757D9"/>
<path fill-rule="evenodd" clip-rule="evenodd" d="M49.2439 40.8831C54.9112 40.7316 61.7294 42.5241 64.8699 46.8121L66.8457 46.6075C57.5687 36.9064 47.2887 32.3367 42.8721 42.1521C44.5054 41.3863 46.7639 40.9487 49.2422 40.8831" fill="#84EFEA"/>
<path fill-rule="evenodd" clip-rule="evenodd" d="M63.8728 47.0519C57.7204 47.6646 49.1288 41.8756 49.2437 40.8828C46.7659 40.949 44.5069 41.3871 42.8735 42.1519C48.9268 48.2274 56.3059 49.1059 63.9746 48.6754L63.8728 47.0519Z" fill="#FDD108"/>
<path fill-rule="evenodd" clip-rule="evenodd" d="M99.9517 41.1072C95.1833 40.9601 89.4469 42.7034 86.8024 46.8677L85.1396 46.6686C92.9456 37.2437 101.595 32.8043 105.311 42.3402C103.936 41.5973 102.036 41.1718 99.9517 41.1072Z" fill="#84EFEA"/>
<path fill-rule="evenodd" clip-rule="evenodd" d="M87.6432 47.1009C92.8221 47.6961 100.048 42.0723 99.9518 41.1074C102.037 41.172 103.936 41.5997 105.311 42.3404C100.218 48.2431 94.0101 49.0986 87.5571 48.6785L87.6432 47.1009Z" fill="#FDD108"/>
<path fill-rule="evenodd" clip-rule="evenodd" d="M88.7504 56.0218V96.6646H39.9723V56.0218H37.813V45.0938H90.9098V56.0218H88.7504Z" fill="#FDD108"/>
<path d="M107.776 46.2441H58.998V96.6646H107.776V46.2441Z" fill="#FDD108"/>
<path opacity="0.2" d="M107.776 47.3945H58.998V58.3225H107.776V47.3945Z" fill="#363636"/>
<path opacity="0.2" d="M87.6331 47.3945H79.1406V58.3225H87.6331V47.3945Z" fill="#363636"/>
<path d="M87.6331 58.3218H79.1406V96.6645H87.6331V58.3218Z" fill="#84EFEA"/>
<path d="M109.935 45.0938H56.8384V56.0218H109.935V45.0938Z" fill="#FDD108"/>
<path d="M87.6331 45.0938H79.1406V56.0218H87.6331V45.0938Z" fill="#84EFEA"/>
<path fill-rule="evenodd" clip-rule="evenodd" d="M63.4223 33.6295C68.1406 35.2771 72.8284 39.4141 73.2563 45.0936H75.9721C76.3194 33.8844 66.101 23.6856 57.5693 32.9759C59.2909 32.6646 61.3599 32.9091 63.4228 33.6295" fill="#84EFEA"/>
<path fill-rule="evenodd" clip-rule="evenodd" d="M67.7609 45.0935C60.8528 42.7507 62.8308 34.6753 63.4221 33.6295C61.357 32.9091 59.288 32.6646 57.5686 32.9758C56.5592 37.5373 57.7603 43.1118 64.2595 45.0935H67.7609Z" fill="#FDD108"/>
<path fill-rule="evenodd" clip-rule="evenodd" d="M88.5399 33.6295C83.8211 35.2771 79.1338 39.4141 78.7053 45.0936H75.9896C75.6427 33.8844 85.8606 23.6856 94.3923 32.9759C92.6707 32.6646 90.6018 32.9091 88.5388 33.6295" fill="#84EFEA"/>
<path fill-rule="evenodd" clip-rule="evenodd" d="M84.2002 45.0935C91.1088 42.7507 89.1303 34.6753 88.5395 33.6295C90.6025 32.9091 92.6714 32.6646 94.393 32.9758C95.4024 37.5373 94.2008 43.1118 87.7022 45.0935H84.2002Z" fill="#FDD108"/>
<path opacity="0.2" d="M58.9983 56.022H39.9722V58.3227H58.9983V56.022Z" fill="#363636"/>
<path d="M51.9526 56.022H47.0176V96.6648H51.9526V56.022Z" fill="#84EFEA"/>
<path d="M56.8391 45.0938H37.813V56.0218H56.8391V45.0938Z" fill="#FDD108"/>
<path opacity="0.2" d="M51.9526 56.022H47.0176V58.3227H51.9526V56.022Z" fill="#363636"/>
<path d="M49.7934 45.0938H44.8584V56.0218H49.7934V45.0938Z" fill="#84EFEA"/>
<path fill-rule="evenodd" clip-rule="evenodd" d="M106.493 51.7802L106.527 51.3125C106.74 51.4101 106.973 51.4569 107.206 51.4493L107.184 51.9355C106.994 52.0373 106.581 51.8666 106.493 51.7802Z" fill="#FAA098"/>
<path fill-rule="evenodd" clip-rule="evenodd" d="M108.385 52.5842L108.414 52.5793C108.42 52.6006 108.436 52.6772 108.436 52.6772C107.565 52.8025 107.04 52.4912 106.908 52.4874L106.895 52.5831L106.292 52.4803L106.32 52.2828L106.354 52.268C106.354 52.163 106.395 51.8934 106.492 51.7801C106.583 51.8682 106.946 52.0153 107.133 51.9027C107.144 51.8417 107.176 51.7863 107.222 51.7451L107.267 51.785C107.29 51.7846 107.314 51.7887 107.335 51.7972C107.357 51.8058 107.377 51.8186 107.393 51.8348C107.519 51.9306 107.681 52.1018 107.864 52.2024C108.079 52.32 108.309 52.3665 108.371 52.4693C108.387 52.5056 108.391 52.5454 108.385 52.5842Z" fill="#0A3C5F"/>
<path fill-rule="evenodd" clip-rule="evenodd" d="M99.9175 43.2325C100.078 39.1524 101.956 36.0208 102.407 35.4814C103.457 36.1089 104.602 36.8741 104.562 38.3691C104.531 39.5063 103.624 39.869 103.765 42.9672C103.239 42.8627 100.652 42.9726 99.9175 43.2325Z" fill="#F29524"/>
<path fill-rule="evenodd" clip-rule="evenodd" d="M101.491 39.415C101.3 39.3564 101.106 39.3106 100.91 39.2777C101.221 37.4086 101.963 36.785 102.534 36.8391C102.021 37.6323 101.69 38.566 101.491 39.415Z" fill="#D6FCFA"/>
<path d="M104.795 34.0117H102.407V36.5711H104.795V34.0117Z" fill="url(#paint0_linear_604_466)"/>
<path fill-rule="evenodd" clip-rule="evenodd" d="M103.749 36.0229C103.711 36.0776 103.654 36.1761 103.595 36.28C103.39 36.0858 103.154 35.5541 103.133 35.3911C103.184 35.5552 103.48 35.8342 103.749 36.0229Z" fill="#D49682"/>
<path d="M105.176 42.7661C105.158 42.7643 105.14 42.766 105.123 42.7712C105.106 42.7764 105.09 42.7849 105.077 42.7963C105.063 42.8077 105.052 42.8217 105.043 42.8375C105.035 42.8534 105.03 42.8707 105.028 42.8885C105.027 42.9063 105.029 42.9242 105.034 42.9413C105.039 42.9583 105.048 42.9741 105.06 42.9878C105.071 43.0014 105.085 43.0127 105.101 43.0208C105.117 43.0289 105.134 43.0338 105.152 43.0352L109.312 43.4931C109.341 43.4958 109.37 43.4888 109.395 43.4733C109.42 43.4578 109.439 43.4346 109.449 43.4072L110.561 39.9611C110.574 39.9276 110.573 39.8903 110.558 39.8575C110.544 39.8248 110.517 39.7991 110.484 39.7863C110.45 39.7735 110.413 39.7745 110.381 39.7891C110.348 39.8037 110.322 39.8307 110.31 39.8642L109.052 43.1309L105.176 42.7661Z" fill="#0A3C5F"/>
<path fill-rule="evenodd" clip-rule="evenodd" d="M108.336 43.9531L110.38 51.5915L109.464 51.7233C109.464 51.7233 107.052 48.9943 106.197 45.9683C105.761 46.0055 102.359 46.3621 102.302 46.1871C102.246 46.012 102.553 45.1314 103.174 44.8699C103.794 44.6084 105.628 44.2064 105.628 44.2064C105.628 44.2064 106.492 44.1971 106.499 44.3842C106.506 44.5712 108.332 43.9559 108.332 43.9559" fill="#194294"/>
<path fill-rule="evenodd" clip-rule="evenodd" d="M99.9175 43.2323C99.9175 43.6431 100.026 46.1861 102.238 46.2485C104.45 46.3108 105.853 45.3186 106.644 45.2983C106.523 47.4935 106.73 49.0037 106.485 51.2902C106.734 51.4341 107.129 51.4849 107.48 51.4248C107.693 50.1885 109.451 45.8962 109.49 43.5906C108.789 43.3592 104.636 42.9342 104.031 42.973C102.655 42.9256 101.277 43.0124 99.9175 43.2323Z" fill="#2450A8"/>
<path fill-rule="evenodd" clip-rule="evenodd" d="M109.79 52.0488L109.664 51.6943L110.363 51.5942L110.485 51.9099C110.353 52.08 109.906 52.092 109.79 52.0488Z" fill="#FAA098"/>
<path fill-rule="evenodd" clip-rule="evenodd" d="M111.845 52.0134L111.869 51.997C111.884 52.014 111.929 52.0774 111.929 52.0774C111.185 52.5462 110.578 52.4767 110.456 52.5265L110.483 52.6195L109.89 52.771L109.836 52.579L109.86 52.5517C109.82 52.4548 109.747 52.1923 109.79 52.049C109.908 52.0927 110.3 52.0796 110.425 51.9002C110.411 51.8399 110.417 51.7765 110.443 51.7202L110.5 51.7377C110.543 51.7179 110.592 51.7159 110.636 51.7323C110.789 51.7689 111.007 51.8592 111.214 51.8761C111.458 51.8964 111.687 51.8449 111.786 51.9139C111.814 51.941 111.835 51.9754 111.845 52.0134" fill="#0A3C5F"/>
<path fill-rule="evenodd" clip-rule="evenodd" d="M103.323 35.2716C102.586 36.1566 103.769 37.2408 103.043 38.3534C102.748 38.908 102.063 39.1979 101.899 39.4944C101.736 39.7909 100.608 40.6508 100.212 40.8116C99.4771 41.1103 98.9403 39.2395 99.2207 38.326C99.3971 37.7506 100.062 37.7752 100.241 37.0132C100.42 36.2512 100.232 35.1534 100.64 34.4789C100.888 34.0687 101.537 33.7733 102.01 33.4282C102.483 33.083 102.98 32.2248 104.102 32.4983C104.712 32.6476 105.367 33.2345 105.13 34.1163C104.938 34.8274 103.677 34.8416 103.319 35.2716" fill="#194294"/>
<path fill-rule="evenodd" clip-rule="evenodd" d="M102.589 36.8466C101.993 36.7421 101.179 37.3882 100.88 39.4722C100.704 40.4021 100.826 41.9031 100.846 42.0836C101.282 42.3068 103.814 42.5349 105.557 42.1301C105.606 42.2269 106.018 42.5891 106.504 42.5825C106.99 42.5759 107.34 42.1449 107.34 42.1449C107.421 42.2105 108.017 42.9807 108.087 42.9583C108.198 42.9227 107.589 41.6969 106.988 41.5361C106.68 41.4546 106.201 41.4737 105.393 41.7237C104.903 41.4923 103.65 41.0673 102.199 40.9163C102.784 40.0411 103.656 37.6283 102.589 36.8422" fill="#F5BCA9"/>
<path fill-rule="evenodd" clip-rule="evenodd" d="M102.682 39.971C102.145 39.6214 101.543 39.3858 100.913 39.2785C101.233 37.3487 102.015 36.7464 102.591 36.8476C103.378 37.4269 103.111 38.8907 102.682 39.971Z" fill="#F29524"/>
<path d="M124.405 79.5342H106.034V98.0929H124.405V79.5342Z" fill="#E0A526"/>
<path fill-rule="evenodd" clip-rule="evenodd" d="M124.405 92.9592V94.1626L123.146 95.7106L121.821 94.0773L120.496 95.7106L119.17 94.0773L117.845 95.7106L116.633 94.2173V93.0139L117.845 94.5078L119.17 92.8739L120.496 94.5078L121.821 92.8739L123.146 94.5078L124.405 92.9592ZM124.405 90.2756V91.4763L123.146 93.0303L121.821 91.3964L120.496 93.0303L119.17 91.3964L117.845 93.0303L116.633 91.5364V90.3363L117.845 91.8296L119.17 90.1963L120.496 91.8296L121.821 90.1963L123.146 91.8296L124.405 90.2756Z" fill="#F2D5D5"/>
<path d="M116.633 79.5342H99.5132V98.0929H116.633V79.5342Z" fill="#FFCE45"/>
<path fill-rule="evenodd" clip-rule="evenodd" d="M116.633 93.0183V94.2217L116.497 94.0816L114.912 95.7106L113.326 94.0773L111.74 95.7106L110.155 94.0773L108.569 95.7106L106.983 94.0789L105.397 95.7106L103.812 94.0773L102.226 95.7106L100.64 94.0773L99.5132 95.2386V94.0352L100.64 92.8739L102.226 94.5078L103.812 92.8739L105.397 94.5078L106.983 92.8739L108.569 94.5078L110.155 92.8739L111.74 94.5078L113.326 92.8739L114.912 94.5078L116.497 92.8739L116.633 93.0183ZM116.633 90.3347V91.5348L116.497 91.3948L114.912 93.0303L113.326 91.3964L111.74 93.0303L110.155 91.3964L108.569 93.0303L106.983 91.3948L105.397 93.0303L103.812 91.3964L102.226 93.0303L100.64 91.3964L99.5132 92.5577V91.357L100.64 90.1963L102.226 91.8296L103.812 90.1963L105.397 91.8296L106.983 90.1963L108.569 91.8296L110.155 90.1963L111.74 91.8296L113.326 90.1963L114.912 91.8296L116.497 90.1963L116.633 90.3347Z" fill="white"/>
<path d="M116.633 82.7656H99.5132V83.3772H116.633V82.7656Z" fill="#CC492B"/>
<path d="M124.406 82.7656H116.633V83.3772H124.406V82.7656Z" fill="#B34026"/>
<path d="M109.351 79.1182H106.795V98.0926H109.351V79.1182Z" fill="#FF7758"/>
<path d="M109.351 82.7656H106.795V83.3772H109.351V82.7656Z" fill="#DAC86A"/>
<path d="M121.334 82.7656H119.705V98.0926H121.334V82.7656Z" fill="#DE674C"/>
<path d="M121.334 82.7656H119.705V83.3772H121.334V82.7656Z" fill="#C75237"/>
<path fill-rule="evenodd" clip-rule="evenodd" d="M112.7 80.5122C113.333 80.697 118.245 80.1424 120.893 74.7506L118.314 72.0479C118.036 74.1237 117.6 79.3514 112.521 79.9646L112.7 80.5122Z" fill="#DE674C"/>
<path fill-rule="evenodd" clip-rule="evenodd" d="M112.323 80.2368C112.911 77.0976 114.26 73.1077 118.928 71.2583C119.285 71.7637 120.364 73.4841 120.894 74.7504C119.148 74.304 114.807 75.2197 112.7 80.5119L112.323 80.2368Z" fill="#FF7758"/>
<path fill-rule="evenodd" clip-rule="evenodd" d="M115.335 79.3456L115.265 79.1394C116.34 79.4522 119.577 78.7953 121.244 75.958L122.235 78.1165C121.055 79.3992 119.356 80.7087 115.335 79.3456Z" fill="#DE674C"/>
<path fill-rule="evenodd" clip-rule="evenodd" d="M115.055 79.1962L115.336 79.3455C118.245 78.1219 119.348 77.5869 122.259 78.1301L121.32 75.7358C118.97 75.866 118.063 76.6488 115.055 79.1962Z" fill="#FF7758"/>
<path fill-rule="evenodd" clip-rule="evenodd" d="M105.042 74.2335C105.158 76.1481 105.466 77.7371 106.73 78.5549C108.706 79.831 111.205 80.4541 112.962 80.6373L113.08 80.3594C112.181 80.0772 108.743 78.1446 108.285 77.2076C107.942 76.5058 107.414 75.0021 108.103 73.2588L105.042 74.2335Z" fill="#DE674C"/>
<path fill-rule="evenodd" clip-rule="evenodd" d="M113.131 80.5652C113.338 77.1431 110.722 72.6118 107.042 71.2114L105.042 74.2358C107.031 74.4546 112.456 76.9188 112.961 80.6385L113.131 80.5652Z" fill="#FF7758"/>
<path d="M125.103 79.1182H105.337V82.765H125.103V79.1182Z" fill="#E0A526"/>
<path d="M125.103 82.0962H105.337V82.7657H125.103V82.0962Z" fill="#F2D5D5"/>
<path fill-rule="evenodd" clip-rule="evenodd" d="M109.299 79.3456L109.37 79.1394C108.294 79.4522 105.058 78.7953 103.391 75.958L102.399 78.1165C103.58 79.3992 105.28 80.7087 109.299 79.3456Z" fill="#DE674C"/>
<path fill-rule="evenodd" clip-rule="evenodd" d="M109.58 79.1962L109.299 79.3455C106.391 78.1219 105.287 77.5869 102.376 78.1301L103.315 75.7358C105.665 75.866 106.572 76.6488 109.58 79.1962Z" fill="#FF7758"/>
<path d="M117.282 79.1182H98.8638V82.765H117.282V79.1182Z" fill="#FFCE45"/>
<path d="M117.282 82.0962H98.8638V82.7657H117.282V82.0962Z" fill="white"/>
<path opacity="0.26" fill-rule="evenodd" clip-rule="evenodd" d="M112.831 79.1182C110.642 79.4786 107.448 83.5582 107.338 87.542C106.822 87.2215 104.092 84.9995 103.772 84.807C104.623 82.8252 108.223 79.3457 112.102 79.1182H112.831Z" fill="#7A3020"/>
<path d="M122.031 79.1182H120.402V82.765H122.031V79.1182Z" fill="#DE674C"/>
<path fill-rule="evenodd" clip-rule="evenodd" d="M112.831 79.1182C110.56 79.4786 106.439 83.5582 105.424 87.542C104.98 87.2215 102.756 84.9995 102.479 84.807C103.78 82.8252 108.171 79.3457 112.104 79.1182H112.831Z" fill="#FF7758"/>
<path opacity="0.53" fill-rule="evenodd" clip-rule="evenodd" d="M112.414 79.1182C110.534 79.3228 108.885 79.8085 107.224 82.7656C106.423 82.6311 105.542 82.3652 104.849 82.1896C106.841 78.6007 109.689 78.8146 112.414 79.1182Z" fill="#DE674C"/>
<path fill-rule="evenodd" clip-rule="evenodd" d="M112.331 79.1186C110.81 79.0053 107.686 80.1633 106.034 83.0357C105.268 82.9011 103.901 82.6353 103.252 82.4597C106.161 78.8708 109.879 78.3107 112.331 79.1186Z" fill="#FF7758"/>
<path fill-rule="evenodd" clip-rule="evenodd" d="M121.395 104.108C121.395 104.193 121.313 104.515 122.872 104.475C123.082 104.376 123.372 104.28 123.412 104.288C123.452 104.297 123.492 104.464 123.492 104.464C123.686 104.49 124.247 104.533 124.287 104.361C124.373 103.995 124.21 103.475 123.993 103.294L123.938 103.289C123.938 103.359 123.834 103.589 123.636 103.572C123.439 103.556 123.208 103.363 123.146 103.227C123.033 103.264 122.477 103.874 122.057 103.938C121.638 104.002 121.455 103.875 121.398 104.107" fill="#B02747"/>
<path fill-rule="evenodd" clip-rule="evenodd" d="M123.115 102.824L123.938 102.964L123.115 102.824ZM132.351 90.8755C130.881 91.3563 128.543 91.4449 127.723 91.2212C126.615 91.8661 124.222 94.0109 123.628 95.1093C123.435 95.7389 122.875 100.482 123.116 102.822L123.147 103.224L123.192 103.296C123.288 103.42 123.476 103.556 123.639 103.57C123.803 103.584 123.912 103.418 123.935 103.326L123.942 103.287V102.962C124.584 99.133 125.812 98.6807 126.664 95.4484C127.869 95.1902 130.153 95.3035 131.63 93.4644C132.103 92.8753 132.304 91.9301 132.351 90.8777V90.8755Z" fill="#FAA098"/>
<path fill-rule="evenodd" clip-rule="evenodd" d="M139.378 100.487C139.462 100.495 139.773 100.607 139.882 99.0447C139.804 98.8259 139.736 98.5261 139.748 98.4868C139.76 98.4474 139.93 98.4233 139.93 98.4233C139.974 98.2319 140.07 97.6756 139.903 97.6181C139.549 97.4978 139.018 97.6116 138.818 97.8112L138.809 97.8626C138.878 97.8697 139.096 97.9961 139.06 98.1908C139.025 98.3856 138.812 98.5989 138.671 98.6509C138.698 98.7679 139.249 99.3822 139.273 99.81C139.298 100.238 139.153 100.406 139.378 100.486" fill="#B02747"/>
<path fill-rule="evenodd" clip-rule="evenodd" d="M138.673 98.6519L138.309 98.6453C135.491 99.0633 131.404 98.5359 130.584 97.9053C130.132 97.4376 129.412 96.0504 128.981 95.0674C129.907 94.8371 130.816 94.1375 131.418 93.3865C131.951 92.7219 132.351 91.7509 132.351 90.8779C132.563 91.4736 132.833 95.3573 132.616 96.0914C134.07 96.5837 136.31 97.606 138.279 97.8155L138.812 97.8626L138.85 97.873C138.939 97.908 139.093 98.0245 139.063 98.1919C139.032 98.3593 138.881 98.5294 138.75 98.6131L138.673 98.6519Z" fill="#FAA098"/>
<path fill-rule="evenodd" clip-rule="evenodd" d="M129.627 80.8323C129.845 80.9636 129.647 81.3367 129.552 81.4696L129.785 81.6884C130.361 81.1414 130.616 79.7559 129.926 79.356C129.926 78.8019 128.367 78.5021 127.82 78.7357C127.124 79.0322 127.112 80.1639 127.964 80.2345C128.273 80.3275 128.684 80.3111 128.846 80.2946C128.883 80.3636 128.864 80.654 128.854 80.7229C128.954 80.7328 129.056 80.7328 129.157 80.7229C129.119 80.9245 129.07 81.1237 129.009 81.3197C129.137 81.1693 129.367 80.6759 129.626 80.8307" fill="#B02747"/>
<path d="M129.846 80.2324H127.356V82.9073H129.846V80.2324Z" fill="url(#paint1_linear_604_466)"/>
<path fill-rule="evenodd" clip-rule="evenodd" d="M128.38 82.2406C128.398 82.3057 128.425 82.414 128.451 82.53C128.703 82.4058 129.081 81.9693 129.148 81.8188C129.053 81.9572 128.69 82.1383 128.38 82.2389" fill="#D49682"/>
<path fill-rule="evenodd" clip-rule="evenodd" d="M124.659 76.1606C124.542 75.1213 124.781 73.9004 125.68 74.2586C125.972 74.3752 126.162 74.769 126.034 75.1027C125.871 75.5321 125.321 75.9341 125.243 76.2831C125.202 78.93 125.87 80.3927 126.665 81.2657C126.471 81.7864 126.199 82.2738 125.858 82.7109C124.247 79.9606 124.306 78.4339 124.66 76.1606L125.244 76.2831L124.659 76.1606Z" fill="#F3B8A4"/>
<path fill-rule="evenodd" clip-rule="evenodd" d="M133.98 75.7024C133.945 75.4562 133.939 74.0663 133.277 74.1161C132.572 74.18 132.757 74.9623 132.876 75.1942C132.995 75.4261 133.192 75.5306 133.302 75.8643C133.044 78.1617 132.314 79.6123 131.487 80.5855C131.487 80.5855 132.106 81.2791 132.746 81.8835C133.691 79.9449 134.028 76.5179 133.98 75.7024Z" fill="#F3B8A4"/>
<path fill-rule="evenodd" clip-rule="evenodd" d="M126.462 96.6603C125.595 96.1817 124.108 95.4197 123.646 95.1834L123.632 95.1757L123.621 95.1702L123.614 95.1664C123.62 95.1462 123.625 95.1281 123.63 95.1117C124.224 94.0177 126.617 91.8685 127.725 91.2236C127.752 91.2307 127.779 91.2379 127.81 91.2444C128.697 91.4413 130.935 91.3434 132.354 90.8779C132.351 90.9326 132.348 90.9928 132.345 91.0497C132.072 95.4602 127.736 95.371 127.075 97.0235C126.878 96.8912 126.674 96.7698 126.465 96.6597L126.462 96.6603Z" fill="#194294"/>
<path fill-rule="evenodd" clip-rule="evenodd" d="M131.398 84.1691C131.543 84.5344 131.662 84.9097 131.754 85.2921C131.935 86.2936 132.444 88.7967 132.353 90.8802C130.933 91.3457 128.696 91.4437 127.809 91.2467L127.724 91.2259C127.609 90.3453 127.716 87.6075 127.988 85.4239C128.124 84.3299 128.301 83.3765 128.514 82.8639C128.517 82.8798 128.52 82.8956 128.523 82.9104L128.621 82.8612C129.054 82.6496 129.453 82.373 129.803 82.0407C129.803 82.0303 129.803 82.0204 129.803 82.0106C130.434 81.6271 131.002 81.1473 131.487 80.5884C131.487 80.5884 132.106 81.282 132.746 81.8864C132.855 81.9882 132.964 82.0877 133.069 82.1807C132.702 83.1287 132.072 83.8042 131.398 84.1702" fill="#C7E5FC"/>
<path fill-rule="evenodd" clip-rule="evenodd" d="M125.858 82.7113C126.199 82.2742 126.471 81.7867 126.665 81.2661C127.033 81.6629 127.467 81.993 127.947 82.242C127.953 82.2684 127.966 82.293 127.984 82.3136C128.016 82.318 128.049 82.318 128.081 82.3136C128.207 82.3787 128.326 82.4367 128.437 82.4903C128.463 82.6139 128.492 82.7534 128.512 82.8623C128.324 83.3168 128.163 84.1204 128.034 85.059C127.152 84.6679 125.776 83.5444 125.482 83.0822C125.622 82.9746 125.748 82.8503 125.858 82.7118" fill="#B2D5F0"/>
<path fill-rule="evenodd" clip-rule="evenodd" d="M132.616 96.0934C132.191 96.2028 130.867 96.9193 130.127 97.4833C129.968 97.5977 129.823 97.7304 129.695 97.8788C129.471 97.5227 129.198 96.2159 129.064 95.5168L129.157 95.4676C129.958 95.0404 130.823 94.524 131.451 93.6767C131.893 93.0794 132.218 92.318 132.322 91.3071C132.322 91.2956 132.325 91.2841 132.326 91.2726C132.343 91.1424 132.351 91.0112 132.352 90.8799C132.564 91.4756 132.834 95.3593 132.617 96.0934" fill="#194294"/>
<path fill-rule="evenodd" clip-rule="evenodd" d="M67.5376 92.3988V96.3804H60.66V92.3988H67.5376ZM67.5376 87.444V91.4257H60.66V87.444H67.5376ZM67.5376 82.4893V86.4709H60.66V82.4893H67.5376ZM67.5376 77.5345V81.5162H60.66V77.5345H67.5376ZM67.5376 72.5798V76.5614H60.66V72.5798H67.5376ZM67.5376 67.625V71.6061H60.66V67.625H67.5376ZM60.66 66.6514V62.6719H67.5376V66.653L60.66 66.6514ZM60.66 59.4102H59.6914V100.524H60.66V97.3519H67.5376V100.524H68.5062V59.4102H67.5376V61.6966H60.66V59.4102Z" fill="#2A54A8"/>
<path fill-rule="evenodd" clip-rule="evenodd" d="M59.8119 55.265C59.6486 54.2383 59.8244 51.6827 60.2399 50.592C59.9992 50.2463 60.3558 48.7595 60.9923 48.5867C61.3337 48.5107 61.2057 49.8174 61.1747 49.9143C61.3587 49.8886 61.4965 49.4406 61.5313 49.4302C61.5662 49.4198 61.6675 49.8021 61.2989 50.2725C61.1671 50.4454 60.8088 50.6527 60.7751 50.7102C60.7413 50.7676 60.5693 52.9075 61.1355 54.6125C60.8388 54.7137 60.1941 55.026 59.8119 55.2639" fill="#FAA098"/>
<path fill-rule="evenodd" clip-rule="evenodd" d="M64.472 55.1055C64.6093 55.3322 64.6789 55.5939 64.6724 55.8592C64.6724 56.374 64.4442 56.799 64.1491 56.8635C64.1268 56.9811 64.0593 57.259 64.0593 57.259L63.2818 57.1206C63.2818 57.1206 62.9927 56.6092 63.1729 56.4981C63.3531 56.3871 63.9504 56.0972 64.0261 56.1388C64.0865 56.1721 64.135 56.5851 64.1508 56.7498C64.2148 56.6785 64.2627 56.5941 64.2912 56.5025C64.319 56.4024 64.209 55.6142 64.2297 55.4687C64.2384 55.4041 64.3636 55.3046 64.4731 55.1055" fill="#FAA098"/>
<path fill-rule="evenodd" clip-rule="evenodd" d="M66.4207 65.7087C66.3853 65.0856 66.0074 61.0203 65.8468 59.6517C66.4365 61.0898 67.6659 62.5109 68.5969 62.2894C69.3107 61.6538 67.6081 58.3241 66.7457 57.2662C64.6817 56.5743 63.1147 56.9205 62.432 57.0474C62.2142 56.6531 61.361 54.9037 61.2445 54.5859C60.9886 54.6275 59.7472 55.2363 59.5376 55.471C59.5997 56.391 60.7403 58.6934 61.0741 59.1846C60.896 60.3743 60.5405 64.6995 60.4316 65.9439C61.3468 65.695 65.133 65.5287 66.4207 65.7087Z" fill="white"/>
<path fill-rule="evenodd" clip-rule="evenodd" d="M61.6504 76.0107L61.6749 76.7219C61.8475 76.8159 62.1682 76.8488 62.4371 76.7219V76.054L61.6504 76.0107Z" fill="#FAA098"/>
<path fill-rule="evenodd" clip-rule="evenodd" d="M61.6706 76.6228C61.5105 76.7256 60.573 77.3339 60.4478 77.5746V77.8782C60.6655 77.9165 62.2445 77.7748 62.6082 77.7009V76.7382L62.4367 76.5796V76.7224C62.1682 76.8493 61.8476 76.8164 61.6744 76.7224L61.6706 76.6228Z" fill="#194294"/>
<path fill-rule="evenodd" clip-rule="evenodd" d="M65.7479 80.9414L65.78 81.769C65.78 81.769 65.3445 82.0223 65.021 81.769L64.9307 81.0032L65.7261 80.942L65.7479 80.9414Z" fill="#FAA098"/>
<path fill-rule="evenodd" clip-rule="evenodd" d="M65.7962 81.6613L65.7749 81.6504L65.7798 81.7713C65.7593 81.7832 65.738 81.7937 65.7161 81.803C65.7449 81.7912 65.7731 81.7778 65.8005 81.7631L65.7962 81.6613ZM65.0089 81.6706L64.9158 81.7253L64.7524 82.868C64.7524 82.868 64.9768 83.1082 65.402 83.0201C65.8272 82.932 66.9885 82.6372 66.9885 82.6372L66.8971 82.2455L65.7978 81.6608L65.8022 81.7625C65.7747 81.7773 65.7466 81.7906 65.7178 81.8025C65.5849 81.8615 65.2708 81.9666 65.022 81.7707L65.0089 81.6706Z" fill="#194294"/>
<path fill-rule="evenodd" clip-rule="evenodd" d="M68.2717 59.9473C67.3543 60.0228 66.7259 60.4396 66.4717 60.8137C67.1016 61.754 67.9292 62.4493 68.6011 62.2906C68.9571 61.9739 68.71 60.9882 68.2744 59.9484" fill="#FAA098"/>
<path fill-rule="evenodd" clip-rule="evenodd" d="M60.4861 65.9396C60.387 66.8099 60.1817 69.1811 60.2138 70.5202C60.2911 71.519 61.0142 74.0856 61.392 76.2637L62.4483 76.2577C62.5027 75.2228 63.4566 73.2322 62.8049 71.1487C62.8898 71.0683 62.9824 70.8982 63.0722 70.6931C62.6494 69.0667 62.419 67.3959 62.3857 65.7153C61.5635 65.77 60.8508 65.8488 60.4882 65.9391" fill="#DB8B29"/>
<path fill-rule="evenodd" clip-rule="evenodd" d="M63.0699 70.6919C63.5054 72.3291 64.02 73.3881 64.2415 73.788C62.7987 75.7282 63.8381 79.2137 64.5753 81.1758L65.8711 81.1632C65.8091 78.1093 67.0504 72.6393 66.4221 65.7115C65.6158 65.595 63.8305 65.619 62.3833 65.7158C62.4166 67.3964 62.647 69.0672 63.0699 70.6936" fill="#FFA12E"/>
<path fill-rule="evenodd" clip-rule="evenodd" d="M62.7694 57.3251C63.1064 57.284 64.118 57.0729 64.29 56.5046C64.3178 56.4044 64.2078 55.6162 64.2285 55.4707C64.2492 55.3252 64.8547 55.0145 64.5585 53.7285C64.1229 54.3887 63.2588 53.909 62.6039 54.5375C62.2505 54.8772 61.9538 56.3492 62.7672 57.3272" fill="#194294"/>
<path fill-rule="evenodd" clip-rule="evenodd" d="M115.814 67.4512L115.607 68.2607C115.602 68.2874 115.592 68.3127 115.576 68.3351C115.561 68.3576 115.542 68.3768 115.519 68.3914L115.613 68.0233C115.613 68.0096 115.609 67.996 115.607 67.9834C115.572 67.7476 115.109 67.3325 114.895 67.1875L115.101 66.3779C115.315 66.5234 115.778 66.9386 115.814 67.1738C115.83 67.2655 115.83 67.3595 115.814 67.4512Z" fill="#A1F1FC"/>
<path fill-rule="evenodd" clip-rule="evenodd" d="M80.5701 89.4255L81.1048 89.665C81.1225 89.6717 81.1387 89.6819 81.1524 89.6951C81.1661 89.7083 81.1769 89.7241 81.1843 89.7416L80.9414 89.6322H80.9131C80.746 89.6289 80.4046 89.9024 80.2788 90.0343L79.7441 89.7947C79.8705 89.6629 80.2118 89.3894 80.3784 89.3926C80.4438 89.3916 80.5089 89.4029 80.5701 89.426" fill="white"/>
<path fill-rule="evenodd" clip-rule="evenodd" d="M130.631 63.5003L129.387 64.7502C129.233 64.9044 129.002 65.0308 128.659 65.1287L129.657 64.1266C129.683 63.8471 129.642 63.5216 129.602 63.1513L130.846 61.9014C130.917 62.5928 130.999 63.1283 130.628 63.5003" fill="#FFDD00"/>
<path fill-rule="evenodd" clip-rule="evenodd" d="M70.6977 66.9153L68.1278 69.4971C67.8099 69.8166 67.3318 70.0775 66.624 70.2794L68.6853 68.2089C68.7398 67.6308 68.6554 66.958 68.5765 66.1927L71.1468 63.6108C71.2939 65.0396 71.4637 66.1457 70.6977 66.9153Z" fill="#E48603"/>
<path fill-rule="evenodd" clip-rule="evenodd" d="M50.1482 56.4468C50.0361 56.3981 49.8216 55.7012 50.0448 55.478L50.6508 54.8692C50.7945 54.7248 51.1207 54.7779 51.7735 55.3325C51.8816 55.4157 51.9832 55.5071 52.0773 55.606L51.4713 56.217C51.3771 56.1184 51.2758 56.027 51.168 55.9435C50.9932 55.7901 50.8041 55.6538 50.6034 55.5366C50.6464 55.6947 50.7085 55.821 50.7542 55.8407L50.1482 56.4468Z" fill="#729690"/>
<path fill-rule="evenodd" clip-rule="evenodd" d="M55.5097 37.0991C55.3988 37.2134 55.2657 37.3035 55.1187 37.3639L52.9409 38.1554C52.4122 38.3474 52.0905 37.7178 51.6837 37.1773L49.6899 37.9021C49.8941 37.3092 49.9948 36.6407 50.4065 36.4914L52.5843 35.6999C52.7416 35.6424 52.9447 35.661 53.2169 35.789C53.8812 36.1019 54.2226 37.1801 54.7638 37.3704L55.5097 37.0991Z" fill="#B0FCFC"/>
<path fill-rule="evenodd" clip-rule="evenodd" d="M81.1606 41.7178L81.8374 42.0214C81.8599 42.03 81.8804 42.0431 81.8978 42.0598C81.9152 42.0765 81.9291 42.0966 81.9387 42.1188L81.6305 41.9809H81.5946C81.3833 41.9765 80.951 42.3228 80.7915 42.4896L80.1147 42.1866C80.2743 42.0192 80.7066 41.673 80.9178 41.6773C81.0006 41.676 81.0829 41.6901 81.1606 41.7189" fill="white"/>
<path fill-rule="evenodd" clip-rule="evenodd" d="M68.5074 49.6324L69.353 51.0546C69.4575 51.2302 69.519 51.4708 69.5288 51.8056L68.851 50.6657C68.6038 50.5771 68.3 50.5399 67.9564 50.4901L67.1104 49.0679C67.7523 49.1609 68.2537 49.209 68.5074 49.6324Z" fill="#FFDD00"/>
<path fill-rule="evenodd" clip-rule="evenodd" d="M73.8153 32.9913C73.1668 32.9574 72.8635 32.1894 73.1516 31.6687L74.0891 29.9729C74.3396 29.5206 75.0365 29.2547 76.3415 29.8187C76.5654 29.9196 76.814 29.9516 77.0559 29.9106L77.7637 28.6284C77.8121 28.9966 77.7637 29.281 77.6466 29.4889L76.7091 31.1846C76.4559 31.6413 75.8924 31.7272 75.4024 31.5128C75.0993 31.3763 74.7805 31.2784 74.4534 31.2212C74.5466 31.2658 74.6476 31.2914 74.7506 31.2967L73.8153 32.9913Z" fill="#2451AA"/>
<path fill-rule="evenodd" clip-rule="evenodd" d="M102.25 80.6707C102.864 80.4596 102.946 79.6374 102.526 79.2157L101.163 77.8482C100.798 77.4817 100.056 77.4182 98.9548 78.3202C98.7671 78.479 98.5367 78.5781 98.2928 78.6052L97.2583 77.5659C97.3127 77.9335 97.4385 78.1928 97.6062 78.3607L98.9701 79.7282C99.3376 80.098 99.9017 80.0258 100.317 79.6856C100.571 79.4706 100.851 79.2885 101.15 79.1435C101.073 79.2131 100.983 79.2665 100.885 79.3005L102.25 80.6707Z" fill="#2451AA"/>
<path fill-rule="evenodd" clip-rule="evenodd" d="M111.281 34.1247L111.662 32.9049C111.677 32.866 111.683 32.8245 111.682 32.783C111.68 32.7414 111.67 32.7006 111.652 32.6631L111.478 33.2183L111.439 33.2659C111.204 33.5438 110.268 33.7084 109.872 33.7237L109.491 34.9441C109.886 34.9282 110.822 34.7636 111.058 34.4862C111.154 34.3807 111.23 34.2581 111.281 34.1247Z" fill="#DEB22C"/>
<path fill-rule="evenodd" clip-rule="evenodd" d="M143.863 28.5934C143.586 28.8587 143.336 29.0239 143.106 29.1076L138.885 30.6507C137.861 31.0248 137.235 29.8012 136.445 28.7586L132.58 30.1704C132.973 29.0217 133.166 27.7248 133.963 27.4354L138.184 25.8929C138.489 25.7835 138.883 25.8168 139.41 26.0641C140.7 26.6685 141.365 28.7575 142.416 29.1234L143.863 28.5934Z" fill="#DBD638"/>
<path fill-rule="evenodd" clip-rule="evenodd" d="M111.239 44.7105L110.562 45.0141C110.54 45.0226 110.519 45.0357 110.502 45.0524C110.484 45.0691 110.47 45.0892 110.461 45.1114L110.769 44.9736H110.805C111.016 44.9692 111.449 45.3155 111.608 45.4823L112.284 45.1793C112.125 45.0119 111.693 44.6656 111.482 44.67C111.399 44.6687 111.317 44.6828 111.239 44.7116" fill="#DFFFD9"/>
<path fill-rule="evenodd" clip-rule="evenodd" d="M65.034 93.0001C64.9232 93.1144 64.7901 93.2045 64.6431 93.2648L62.4653 94.0569C61.9371 94.2489 61.6148 93.6193 61.2087 93.0783L59.2148 93.8031C59.4185 93.2101 59.5192 92.5422 59.9308 92.3924L62.1086 91.6009C62.266 91.5462 62.4691 91.5626 62.7408 91.6906C63.4055 92.0034 63.7464 93.0816 64.2881 93.2714L65.034 93.0001Z" fill="#B0FCFC"/>
<path fill-rule="evenodd" clip-rule="evenodd" d="M94.5056 61.9008L91.2715 62.7022C90.8719 62.8012 90.3737 62.7782 89.7236 62.5999L92.3169 61.9572C92.6332 61.53 92.8837 60.9616 93.1826 60.3244L96.4167 59.5225C95.858 60.7133 95.4693 61.6618 94.5056 61.9008Z" fill="#15D7D7"/>
<path fill-rule="evenodd" clip-rule="evenodd" d="M111.515 76.3534C111.45 76.2615 111.611 75.6133 111.891 75.5444L112.653 75.3551C112.834 75.3103 113.064 75.5072 113.315 76.2533C113.36 76.3703 113.397 76.4906 113.424 76.6133L112.662 76.802C112.635 76.6794 112.598 76.559 112.553 76.442C112.488 76.2384 112.404 76.0414 112.302 75.854C112.261 75.9984 112.251 76.1275 112.277 76.1647L111.515 76.3534Z" fill="white"/>
<path fill-rule="evenodd" clip-rule="evenodd" d="M79.3931 12.1976L79.3855 13.715C79.3855 13.9026 79.3196 14.1203 79.1677 14.3883L79.1737 13.1707C79.0218 12.9836 78.8008 12.8097 78.5547 12.6067L78.5618 11.0894C79.0213 11.4684 79.3931 11.7458 79.391 12.1976" fill="#B0FCFC"/>
<path fill-rule="evenodd" clip-rule="evenodd" d="M76.7844 49.0416C76.3292 48.4946 76.7142 47.6817 77.3425 47.5264L79.3853 47.0199C79.9298 46.8847 80.6604 47.2463 81.182 48.7123C81.2681 48.9669 81.4275 49.1902 81.6399 49.3539L83.1862 48.971C82.9303 49.2833 82.6662 49.454 82.4152 49.518L80.3724 50.0245C79.822 50.1607 79.3379 49.7735 79.1392 49.221C79.0226 48.8764 78.8634 48.5478 78.6655 48.2429C78.6999 48.351 78.7555 48.451 78.8289 48.5372L76.7844 49.0416Z" fill="#FFE301"/>
<path fill-rule="evenodd" clip-rule="evenodd" d="M97.4711 40.3538L97.892 38.6138C97.9023 38.5566 97.9241 38.5021 97.9561 38.4536C97.988 38.4051 98.0293 38.3636 98.0776 38.3315L97.886 39.1231C97.8898 39.1526 97.8942 39.1816 97.8985 39.2089C97.9802 39.7127 98.9826 40.5907 99.4454 40.8964L99.0245 42.6365C98.5617 42.3307 97.5593 41.4527 97.4782 40.949C97.4493 40.7712 97.4237 40.5414 97.4711 40.3538Z" fill="#DEB22C"/>
<path fill-rule="evenodd" clip-rule="evenodd" d="M144.499 77.887L142.114 78.4799C141.82 78.5527 141.452 78.5346 140.971 78.4045L142.883 77.9302C143.116 77.6157 143.302 77.1967 143.522 76.7268L145.912 76.1333C145.5 77.0112 145.213 77.7109 144.502 77.887" fill="white"/>
<path fill-rule="evenodd" clip-rule="evenodd" d="M110.133 45.0669C110.176 45.2505 110.255 45.4235 110.367 45.5751L112.084 47.7155C112.5 48.2346 113.211 47.7953 113.949 47.5016L115.521 49.4604C115.676 48.7367 115.982 47.9999 115.658 47.5951L113.941 45.4547C113.817 45.2999 113.6 45.1938 113.248 45.1555C112.386 45.0625 111.384 45.9416 110.721 45.7999L110.133 45.0669Z" fill="#9977FF"/>
<path fill-rule="evenodd" clip-rule="evenodd" d="M123.715 92.1422L124.307 92.9977C124.328 93.0244 124.343 93.055 124.352 93.0877C124.361 93.1204 124.363 93.1546 124.358 93.1881L124.089 92.7986L124.046 92.7713C123.796 92.6126 123.029 92.7127 122.718 92.797L122.125 91.9415C122.437 91.8572 123.205 91.7566 123.454 91.9152C123.554 91.9736 123.643 92.0507 123.715 92.1422Z" fill="white"/>
<path fill-rule="evenodd" clip-rule="evenodd" d="M85.7971 76.2961L84.7458 77.3354C84.7136 77.3708 84.6746 77.3994 84.6312 77.4195C84.5879 77.4396 84.5409 77.4508 84.4932 77.4524L84.9712 76.9798L84.9995 76.9142C85.1628 76.5247 84.8362 75.4684 84.6451 75.0505L85.6959 74.0112C85.8881 74.4291 86.2115 75.4881 86.0503 75.8749C85.9927 76.0299 85.9069 76.1727 85.7971 76.2961Z" fill="#2451AA"/>
<path fill-rule="evenodd" clip-rule="evenodd" d="M11.5012 62.098L8.97056 64.641C8.65804 64.955 8.18709 65.2121 7.49072 65.4112L9.51992 63.3725C9.57437 62.8036 9.49052 62.1412 9.41103 61.388L11.9433 58.8428C12.0881 60.2491 12.2553 61.3387 11.5012 62.0958" fill="#15D7D7"/>
<path fill-rule="evenodd" clip-rule="evenodd" d="M93.9556 18.4281C93.9915 18.5326 94.0486 18.6286 94.1233 18.7098L95.259 19.8509C95.5345 20.1282 95.9216 19.8268 96.3348 19.6085L97.3742 20.6528C97.4199 20.2206 97.5522 19.7715 97.3377 19.5555L96.2025 18.4144C96.1203 18.3318 95.9848 18.2837 95.779 18.2837C95.2704 18.2837 94.7401 18.8597 94.3449 18.8187L93.9556 18.4281Z" fill="#FF7758"/>
<path fill-rule="evenodd" clip-rule="evenodd" d="M9.34503 45.0818L10.1781 46.4805C10.281 46.6539 10.3414 46.8902 10.3512 47.2201L9.68314 46.0976C9.44031 46.0101 9.13868 45.974 8.80221 45.9247L7.96973 44.5244C8.6013 44.6163 9.09676 44.6634 9.34503 45.0802" fill="#B0FCFC"/>
<path fill-rule="evenodd" clip-rule="evenodd" d="M27.7556 35.4601C27.7714 36.1023 27.044 36.4595 26.5131 36.2144L24.7877 35.4174C24.3266 35.2047 24.0146 34.5373 24.4671 33.2075C24.5488 32.9793 24.5613 32.7318 24.503 32.4964L23.1963 31.8947C23.5524 31.8187 23.8339 31.8477 24.0456 31.9456L25.771 32.7426C26.2366 32.957 26.3629 33.5051 26.1919 34.0067C26.0813 34.3158 26.0096 34.6376 25.9785 34.9645C26.0154 34.8693 26.0328 34.7675 26.0297 34.6653L27.7556 35.4601Z" fill="#9977FF"/>
<path fill-rule="evenodd" clip-rule="evenodd" d="M2.72386 52.4943L2.14836 50.6597C2.12648 50.6011 2.11651 50.5388 2.11904 50.4763C2.12156 50.4138 2.13653 50.3525 2.16306 50.2959L2.42495 51.1301C2.44455 51.1552 2.46469 51.1793 2.48429 51.2023C2.8371 51.6196 4.24453 51.8669 4.83963 51.8904L5.41512 53.7251C4.82003 53.7021 3.4126 53.4516 3.05924 53.0369C2.93456 52.8892 2.78701 52.6912 2.72386 52.4938" fill="#DEB22C"/>
<path fill-rule="evenodd" clip-rule="evenodd" d="M20.4353 56.4588L18.5689 58.3339C18.3386 58.5653 17.9912 58.7551 17.48 58.9017L18.9767 57.398C19.017 56.9784 18.9549 56.49 18.8978 55.9342L20.7642 54.0591C20.8731 55.0984 20.9939 55.9003 20.4375 56.4588" fill="white"/>
<path fill-rule="evenodd" clip-rule="evenodd" d="M48.4141 85.2164C48.5544 85.3617 48.7231 85.4764 48.9095 85.5533L51.6721 86.5631C52.3423 86.8082 52.7523 86.0074 53.2696 85.3247L55.798 86.2491C55.5405 85.4965 55.4142 84.6481 54.892 84.4577L52.1295 83.4479C51.9296 83.3746 51.6721 83.3981 51.3269 83.5573C50.483 83.9534 50.0474 85.3203 49.3598 85.5599L48.4141 85.2164Z" fill="#DBD638"/>
<path fill-rule="evenodd" clip-rule="evenodd" d="M9.20722 81.1684L10.2254 81.6246C10.2591 81.6376 10.2899 81.6573 10.316 81.6825C10.3421 81.7077 10.3629 81.7378 10.3773 81.7712L9.91393 81.5633H9.85948C9.54206 81.5567 8.89198 82.0775 8.65242 82.3291L7.63428 81.8729C7.87384 81.6218 8.52447 81.1011 8.84189 81.1071C8.96634 81.1048 9.09011 81.1261 9.20668 81.17" fill="white"/>
<path fill-rule="evenodd" clip-rule="evenodd" d="M6.54346 79.7659L6.14873 81.3073C6.13893 81.358 6.11902 81.4062 6.0902 81.449C6.06138 81.4918 6.02425 81.5282 5.98103 81.5562L6.15962 80.855C6.15635 80.8287 6.15254 80.8003 6.14873 80.7784C6.08176 80.3304 5.20028 79.54 4.79248 79.2626L5.18503 77.7212C5.59283 77.9985 6.47431 78.7889 6.54128 79.2369C6.56469 79.3956 6.58321 79.5996 6.54128 79.7659" fill="#2451AA"/>
<path fill-rule="evenodd" clip-rule="evenodd" d="M37.7215 50.2472L38.554 51.6475C38.6569 51.8204 38.7173 52.0567 38.7271 52.3871L38.0596 51.2641C37.8162 51.1766 37.5152 51.1405 37.1787 51.0912L36.3462 49.6909C36.9778 49.7828 37.4732 49.8299 37.7215 50.2472Z" fill="#FFE301"/>
<path fill-rule="evenodd" clip-rule="evenodd" d="M42.7005 71.2236C42.5917 71.1761 42.3799 70.4901 42.5987 70.2697L43.1976 69.668C43.3392 69.5257 43.6599 69.5783 44.3034 70.1236C44.4096 70.2072 44.5093 70.2986 44.6018 70.3971L44.0029 70.9988C43.9102 70.9012 43.8103 70.8109 43.704 70.7286C43.5321 70.5773 43.3459 70.4432 43.1481 70.3282C43.1906 70.4835 43.2515 70.6077 43.2967 70.6274L42.7005 71.2236Z" fill="white"/>
<path fill-rule="evenodd" clip-rule="evenodd" d="M42.7125 66.001L42.5061 66.8105C42.5009 66.8372 42.4905 66.8625 42.4753 66.8849C42.4601 66.9074 42.4406 66.9266 42.4179 66.9412L42.5115 66.5731C42.5115 66.5594 42.5083 66.5458 42.5061 66.5326C42.4713 66.2974 42.0085 65.8823 41.7939 65.7373L41.9998 64.9277C42.2143 65.0732 42.6771 65.4884 42.7125 65.7236C42.7293 65.8153 42.7293 65.9093 42.7125 66.001Z" fill="#DBD638"/>
<path fill-rule="evenodd" clip-rule="evenodd" d="M7.46944 87.9748L8.0041 88.2139C8.02182 88.2207 8.03799 88.2311 8.05165 88.2443C8.0653 88.2576 8.07617 88.2734 8.08359 88.291L7.84076 88.1816H7.81245C7.64585 88.1783 7.30393 88.4518 7.17816 88.5836L6.64404 88.344C6.76981 88.2122 7.11119 87.9387 7.27779 87.942C7.34321 87.9407 7.40827 87.952 7.46944 87.9754" fill="white"/>
<path fill-rule="evenodd" clip-rule="evenodd" d="M57.5301 62.0496L56.286 63.2995C56.1325 63.4537 55.9011 63.5801 55.5586 63.678L56.556 62.6759C56.5827 62.3964 56.5419 62.0704 56.5016 61.7L57.7451 60.4507C57.8165 61.1421 57.8981 61.6776 57.5274 62.0496" fill="#FFDD00"/>
<path fill-rule="evenodd" clip-rule="evenodd" d="M56.6142 46.9136C56.5015 46.8649 56.2875 46.168 56.5107 45.9443L57.1167 45.336C57.2604 45.1916 57.586 45.2447 58.2394 45.7988C58.3472 45.8824 58.4487 45.9738 58.5432 46.0723L57.9372 46.6811C57.8431 46.5825 57.7417 46.491 57.6339 46.4076C57.4591 46.2542 57.27 46.1179 57.0693 46.0006C57.1124 46.1587 57.1744 46.2851 57.2202 46.3048L56.6142 46.9136Z" fill="#729690"/>
<path fill-rule="evenodd" clip-rule="evenodd" d="M68.4009 74.0943C68.456 74.253 68.5427 74.3987 68.6557 74.5226L70.3811 76.2561C70.7998 76.6762 71.3878 76.2189 72.0145 75.8874L73.5934 77.4737C73.6631 76.8173 73.8656 76.1347 73.5389 75.807L71.8136 74.0736C71.6883 73.9483 71.4869 73.875 71.1705 73.875C70.3974 73.875 69.5916 74.7502 68.9927 74.6878L68.4009 74.0943Z" fill="white"/>
<path fill-rule="evenodd" clip-rule="evenodd" d="M8.06007 40.267L8.73683 40.5728C8.75936 40.5813 8.77994 40.5944 8.79734 40.6111C8.81474 40.6278 8.8286 40.6479 8.8381 40.6701L8.52994 40.5323H8.494C8.2833 40.5279 7.85045 40.8742 7.69147 41.041L7.01416 40.7369C7.17369 40.5695 7.60599 40.2232 7.81724 40.2276C7.90004 40.2263 7.98236 40.2404 8.06007 40.2692" fill="white"/>
<path fill-rule="evenodd" clip-rule="evenodd" d="M34.8248 84.6065C35.439 84.3954 35.5212 83.5732 35.1014 83.1515L33.7403 81.7812C33.376 81.4153 32.6334 81.3518 31.5325 82.2538C31.3446 82.4123 31.1142 82.5115 30.8704 82.5388L29.8359 81.4995C29.8904 81.8666 30.0162 82.1264 30.1838 82.2943L31.5477 83.6618C31.9152 84.0311 32.4793 83.9588 32.8942 83.6186C33.1485 83.404 33.4286 83.2221 33.7277 83.0771C33.6503 83.1458 33.56 83.1982 33.462 83.2313L34.8248 84.6065Z" fill="#DBD638"/>
<path fill-rule="evenodd" clip-rule="evenodd" d="M38.1799 32.674L38.561 31.4542C38.5756 31.4153 38.5823 31.3739 38.5808 31.3323C38.5792 31.2908 38.5693 31.25 38.5517 31.2124L38.3808 31.766L38.341 31.8141C38.1064 32.092 37.1704 32.2561 36.7752 32.2719L36.394 33.4918C36.7893 33.4764 37.7252 33.3118 37.9605 33.0345C38.0566 32.929 38.1323 32.8063 38.1837 32.6729" fill="#DEB22C"/>
<path fill-rule="evenodd" clip-rule="evenodd" d="M36.0746 60.3244C35.798 60.5897 35.5481 60.7548 35.3178 60.8385L31.0971 62.3816C30.073 62.7558 29.4464 61.5321 28.6569 60.4896L24.7939 61.9014C25.187 60.7527 25.3798 59.4557 26.1774 59.1664L30.3981 57.6238C30.7035 57.5144 31.0971 57.5478 31.6247 57.795C32.914 58.3995 33.5793 60.4885 34.6301 60.8544L36.0746 60.3244Z" fill="#DBD638"/>
<path fill-rule="evenodd" clip-rule="evenodd" d="M38.1379 43.2598L37.4611 43.5634C37.4386 43.5721 37.4181 43.5851 37.4007 43.6018C37.3833 43.6186 37.3694 43.6386 37.3599 43.6608L37.668 43.5229H37.704C37.9152 43.5186 38.3475 43.8648 38.507 44.0316L39.1838 43.7286C39.0243 43.5612 38.592 43.215 38.3807 43.2194C38.2979 43.2178 38.2155 43.2319 38.1379 43.2609" fill="#DFFFD9"/>
<path fill-rule="evenodd" clip-rule="evenodd" d="M118.072 28.4782L118.333 29.5027C118.34 29.5362 118.353 29.5679 118.372 29.5961C118.392 29.6243 118.416 29.6483 118.445 29.6668L118.326 29.2008C118.326 29.1827 118.33 29.1658 118.333 29.1494C118.378 28.8518 118.963 28.3261 119.235 28.1418L118.974 27.1167C118.702 27.301 118.117 27.8278 118.072 28.1248C118.05 28.241 118.05 28.3604 118.072 28.4765" fill="#AFFCA1"/>
<path fill-rule="evenodd" clip-rule="evenodd" d="M58.783 26.6304L60.1512 28.0045C60.3206 28.1746 60.5748 28.3136 60.9516 28.4213L59.8545 27.3191C59.8251 27.0112 59.8703 26.6534 59.9122 26.2459L58.544 24.874C58.4661 25.6344 58.3758 26.2235 58.783 26.6332" fill="#B0FCFC"/>
<path fill-rule="evenodd" clip-rule="evenodd" d="M21.3497 44.3418C17.8222 45.3461 19.7087 51.3894 18.2065 55.7988C18.5332 56.1652 19.2987 56.2823 19.7087 56.2511L20.6267 53.6955C20.6267 53.6955 20.6648 51.6383 20.6675 51.484C20.6702 51.3297 20.6049 49.5695 20.6588 49.2933C20.7127 49.017 20.8047 46.8049 20.8047 46.8049L21.3541 44.4228L21.3497 44.3418Z" fill="#E38E26"/>
<path fill-rule="evenodd" clip-rule="evenodd" d="M25.4058 68.5438C25.4227 68.5405 25.5441 68.5284 25.5724 68.4579C25.5556 68.2905 25.5724 67.6144 25.518 67.1828C25.4929 66.9848 25.3955 66.9443 25.3623 66.8125C25.1462 66.8935 24.9695 67.0552 24.869 67.2638C24.6245 67.7342 24.5744 68.378 24.2102 68.4721C24.0469 68.5038 23.9412 68.4032 23.9293 68.3583C23.8432 68.4628 23.3478 68.5771 23.4044 68.7183C23.43 68.773 23.8498 68.9852 24.4612 68.7565C24.7694 68.6231 24.6866 68.0657 25.2746 67.6139L25.4058 68.5438Z" fill="#194294"/>
<path fill-rule="evenodd" clip-rule="evenodd" d="M23.9312 68.3603C24.0569 68.2454 24.4723 67.2116 24.6814 67.0053L24.6177 66.379L25.2711 66.2368L25.3255 66.8265C25.1269 66.9142 24.9651 67.069 24.8682 67.2641C24.6237 67.7345 24.5736 68.3783 24.2094 68.4724C24.1593 68.4842 24.107 68.4811 24.0586 68.4635C24.0103 68.4459 23.9681 68.4146 23.9371 68.3734C23.9371 68.3685 23.9328 68.3635 23.9312 68.3586" fill="#F7BCAA"/>
<path fill-rule="evenodd" clip-rule="evenodd" d="M20.5714 68.7725C20.5888 68.7725 20.7097 68.7878 20.7527 68.7249C20.7718 68.558 20.9367 67.9044 20.977 67.4668C20.995 67.2688 20.9084 67.2075 20.9052 67.0713C20.6766 67.1034 20.4692 67.2227 20.3259 67.4044C19.9856 67.8103 19.7972 68.4279 19.4215 68.4399C19.2582 68.4361 19.1738 68.3141 19.1716 68.2676C19.0627 68.3513 18.5569 68.3535 18.582 68.5044C18.5945 68.5657 18.9587 68.8627 19.605 68.7725C19.9344 68.7096 19.9741 68.1472 20.646 67.8349L20.5714 68.7725Z" fill="#194294"/>
<path fill-rule="evenodd" clip-rule="evenodd" d="M19.1719 68.2692C19.3194 68.1849 19.9494 67.2632 20.1976 67.1106L20.2706 66.4849L20.9392 66.4887L20.8673 67.0773C20.6543 67.1197 20.4628 67.2358 20.3261 67.4055C19.9858 67.8113 19.7975 68.4289 19.4218 68.4409C19.3699 68.4422 19.3188 68.4281 19.2749 68.4002C19.231 68.3724 19.1963 68.3321 19.1751 68.2845L19.1719 68.2686" fill="#F7BCAA"/>
<path fill-rule="evenodd" clip-rule="evenodd" d="M20.9292 66.5698C21.1955 64.3643 21.6752 62.5899 21.4508 60.0107C22.9263 57.0197 23.7348 54.2481 21.6305 52.4265C20.8258 52.4096 20.0886 52.3051 19.9029 52.1738C19.463 53.8214 19.0068 57.0422 18.9365 58.0946C18.9648 59.3303 19.8044 62.2015 20.2623 66.5573L20.9292 66.5698Z" fill="#F7BCAA"/>
<path fill-rule="evenodd" clip-rule="evenodd" d="M23.8981 52.0806C23.5023 52.3579 22.5245 52.446 21.6299 52.4263L20.7729 58.463C22.0688 61.4212 23.5992 63.2487 24.631 66.5121L25.2882 66.4159C25.1891 64.8449 24.3767 60.7336 23.7876 59.3595C24.9228 57.4997 26.3466 54.2866 23.8965 52.0806" fill="#F7BCAA"/>
<path fill-rule="evenodd" clip-rule="evenodd" d="M19.9031 52.1735C20.2946 52.4508 23.147 52.6073 23.8989 52.081C23.8134 50.9969 23.986 47.8604 23.9452 46.8397L23.6882 45.4957L22.8551 44.359L22.2018 44.0713C20.5325 44.6052 19.6532 45.4831 19.559 46.8829C19.455 48.432 19.8606 49.5052 19.9009 52.1718" fill="white"/>
<path d="M22.349 43.209H21.3325V44.454H22.349V43.209Z" fill="url(#paint2_linear_604_466)"/>
<path fill-rule="evenodd" clip-rule="evenodd" d="M21.3328 43.9558C21.6714 43.8951 21.942 43.6134 22.0912 43.4203C22.3923 42.7803 22.3368 41.5983 21.5419 41.3373C21.2653 41.246 20.7796 41.2383 20.4257 41.5206C20.3593 41.5846 20.0702 41.9538 20.2205 42.736C20.3707 43.5182 20.7366 44.0275 21.2849 43.9641L21.3306 43.9575" fill="#F7BCAA"/>
<path fill-rule="evenodd" clip-rule="evenodd" d="M22.0657 44.3388C21.2675 46.4207 23.1001 51.5297 21.6943 56.8799C22.8981 56.9723 24.7814 56.8088 25.4968 56.1786C25.4772 54.5447 24.9654 45.6707 23.5716 44.4383C23.0359 44.0505 22.5339 44.0122 22.0678 44.3388" fill="#F49726"/>
<path fill-rule="evenodd" clip-rule="evenodd" d="M19.7954 50.0581L19.8891 49.999L19.7252 46.9189L18.0575 46.5693L17.9639 46.6284L18.1555 49.7704L19.7954 50.0581Z" fill="#603EAE"/>
<path fill-rule="evenodd" clip-rule="evenodd" d="M17.9639 46.6284L19.631 46.978L19.7954 50.0581L18.1555 49.7704L17.9639 46.6284Z" fill="#603EAE"/>
<path fill-rule="evenodd" clip-rule="evenodd" d="M17.8328 48.1761C17.9073 48.1465 18.2776 47.8479 18.3157 47.8566C18.3538 47.8654 18.4284 48.4102 18.4006 48.513C18.3729 48.6159 18.0543 48.8959 17.8632 48.8494C17.8202 48.8281 17.8328 48.1744 17.8328 48.1744" fill="#F7BCAA"/>
<path fill-rule="evenodd" clip-rule="evenodd" d="M22.3264 43.8802C22.4805 44.0848 22.6531 44.2998 22.6389 44.5054C22.6389 44.5301 22.6357 44.5547 22.6329 44.5793C22.7734 44.8402 22.8317 45.1701 22.8344 45.5043L23.6881 45.4977C23.8514 45.3626 24.0006 45.2083 24.1558 45.0519C23.4186 44.1039 23.3761 42.3322 22.621 41.2776C22.0128 40.4297 20.6114 40.4478 20.0669 41.4805C19.3814 42.7807 19.5829 45.228 20.9849 44.4688C21.102 44.4178 21.2224 44.3749 21.3453 44.3402L21.3328 43.9535L21.2849 43.9645C20.7344 44.0296 20.368 43.5203 20.2183 42.7381C20.0685 41.9559 20.3571 41.5894 20.4235 41.5226C21.4972 40.8963 21.9654 42.2337 22.0199 42.6653C22.0607 42.7446 22.0825 43.0045 22.0879 43.3491C22.1315 43.2944 22.1685 43.2473 22.1968 43.2107C22.2655 43.4286 22.3083 43.6539 22.3242 43.8819" fill="#941A4D"/>
<path fill-rule="evenodd" clip-rule="evenodd" d="M21.3483 63.8808C21.4943 62.6998 21.5792 61.4871 21.4507 60.0107L20.7729 58.4633L21.6304 52.4265C21.3028 52.4207 20.9757 52.3981 20.6503 52.3587C20.2845 52.3128 20.0063 52.2493 19.9023 52.1738C19.6257 53.2131 19.342 54.8706 19.1525 56.2216C19.0409 57.0175 18.962 57.7057 18.9348 58.0957C18.9146 59.1826 19.3502 63.6926 19.183 64.436C19.4515 64.426 19.7183 64.3893 19.9796 64.3266C20.4479 64.2208 20.9055 64.0719 21.3467 63.8819" fill="#7D9E98"/>
<path fill-rule="evenodd" clip-rule="evenodd" d="M21.6288 60.3745C21.8303 60.9729 22.9274 63.9645 22.9415 64.582C23.1745 64.5638 23.4057 64.5272 23.633 64.4726C24.0905 64.3653 24.5325 64.1999 24.9484 63.9803C24.6343 62.2414 24.1649 60.2383 23.7876 59.3582C24.2689 58.5716 24.8014 57.5405 25.0693 56.4459L25.0823 56.4394C24.2112 56.8523 22.7096 56.9568 21.6942 56.877C22.0949 55.3497 22.2321 53.8422 22.2424 52.4194C22.0394 52.4265 21.8325 52.4276 21.6305 52.4233L20.7729 58.4633L21.4508 60.0107L21.6288 60.3745Z" fill="#8EABA6"/>
<path fill-rule="evenodd" clip-rule="evenodd" d="M20.8662 41.3621C21.0176 41.3227 21.5032 41.5639 21.562 41.8588C21.6116 42.1087 21.3753 42.4216 21.4836 42.7887C21.6698 43.4128 22.1811 43.5249 22.204 44.0758C22.2165 44.3854 21.8637 44.6775 21.8604 44.9958C21.856 45.4011 22.0368 45.3552 22.0531 45.7474C22.0667 46.0805 21.5544 46.7189 21.5909 47.5563C21.6127 48.065 21.9829 48.6503 22.4076 48.9129L23.4802 49.7733C23.4802 49.7733 23.5891 48.2144 23.6435 47.9245C23.698 47.6346 23.8292 46.8731 23.8068 46.6926C23.7845 46.5121 23.5716 44.3192 23.5716 44.3192L23.196 43.7175L21.6491 41.187L20.9593 41.0776L20.8662 41.3621Z" fill="#941A4D"/>
<path fill-rule="evenodd" clip-rule="evenodd" d="M22.6548 41.3281C22.9946 41.8161 23.22 42.607 23.5085 42.9653C23.6637 43.1578 24.1619 43.171 24.3432 43.6594C24.5245 44.1479 24.2975 44.4039 24.3552 44.7463C24.4129 45.0888 24.9122 45.249 25.0036 45.7474C25.0548 46.0209 24.9661 46.1724 24.9982 46.4141C25.0303 46.6559 25.5682 46.8457 25.535 47.5142C25.5116 47.9775 25.2301 48.4884 24.8561 48.7072C24.555 46.6898 24.1347 44.9372 23.5695 44.4406C23.3022 44.2469 23.043 44.1403 22.7931 44.1228C22.7136 43.951 22.6369 43.8449 22.6396 43.6748C22.6423 43.5046 22.0439 41.8374 22.0439 41.8374L22.6548 41.3281Z" fill="#941A4D"/>
<path fill-rule="evenodd" clip-rule="evenodd" d="M23.5644 44.6852C23.8584 44.671 24.7257 45.4143 24.57 48.151C24.5362 49.2953 24.2493 51.0906 23.6156 51.0468C22.9818 51.0031 19.9274 48.7718 19.9274 48.7718C19.6933 48.9906 19.0018 48.849 18.9386 48.7171C18.8842 48.5634 18.8221 48.0897 18.814 48.0011C18.9588 48.1756 19.6775 48.3096 19.763 48.0799C19.8817 48.1111 22.7428 48.8233 22.7428 48.8233C22.5609 48.1384 22.1254 44.7536 23.5644 44.6841" fill="#F7BCAA"/>
<path fill-rule="evenodd" clip-rule="evenodd" d="M23.5644 44.6853C23.8404 44.6721 24.6228 45.3274 24.5874 47.6774C23.9341 47.7786 23.0014 47.7003 22.5658 47.6144C22.4695 46.3826 22.5658 44.7334 23.5644 44.6853Z" fill="white"/>
<path fill-rule="evenodd" clip-rule="evenodd" d="M7.03829 106.863L6.69364 107.902C6.69364 107.902 6.03703 108.011 5.75391 107.546L5.99837 106.555L7.01161 106.852L7.03829 106.863Z" fill="#FAA098"/>
<path fill-rule="evenodd" clip-rule="evenodd" d="M6.76584 107.774L6.74461 107.751L6.69397 107.903C6.66293 107.907 6.63168 107.911 6.60033 107.912C6.6415 107.911 6.68258 107.907 6.72337 107.902L6.76584 107.774ZM5.78582 107.417L5.64426 107.443L4.90869 108.781C4.90869 108.781 5.0753 109.183 5.64262 109.273C6.20995 109.363 7.78562 109.541 7.78562 109.541L7.85476 109.014L6.76584 107.774L6.72337 107.902C6.68258 107.907 6.6415 107.911 6.60033 107.912C6.40868 107.922 5.97148 107.903 5.75424 107.547L5.78582 107.417Z" fill="#194294"/>
<path fill-rule="evenodd" clip-rule="evenodd" d="M6.83357 107.95C7.45262 107.232 9.54062 101.16 9.89615 99.1822C10.9491 95.1612 9.88309 94.2198 7.38238 93.3665C6.83792 93.3309 6.41216 93.2812 5.95535 93.4846C6.06152 95.3259 6.40998 97.2464 7.15317 99.0001C6.7176 100.435 6.0098 106.195 5.67822 107.621L6.83357 107.95Z" fill="#E5F2FC"/>
<path fill-rule="evenodd" clip-rule="evenodd" d="M12.7477 79.8779C12.8076 79.6477 12.7771 78.9152 12.6818 78.7582C12.5865 78.6013 12.2 78.7818 12.1662 78.8091C12.1325 78.8365 11.9691 78.9524 11.9288 79.0482C11.8792 79.1908 11.8517 79.3402 11.8472 79.4912C11.8472 79.617 11.9049 79.9616 11.9522 79.9923C12.0049 80.0239 12.0622 80.0468 12.1221 80.0601C12.163 80.0672 12.7477 79.8779 12.7477 79.8779Z" fill="#E68178"/>
<path fill-rule="evenodd" clip-rule="evenodd" d="M14.0436 79.5614C13.7562 79.5291 13.2847 79.1408 13.1251 78.6862C12.9656 78.2316 13.8787 78.3383 13.9293 78.3454C13.9799 78.3525 14.1906 78.3246 14.2211 78.4373C14.2578 78.5616 14.2762 78.6906 14.2756 78.8202C14.2756 78.9876 14.0436 79.5614 14.0436 79.5614Z" fill="#E68178"/>
<path fill-rule="evenodd" clip-rule="evenodd" d="M10.4424 80.1529L10.8088 80.6452L16.6786 76.6297C16.8485 75.737 15.6986 74.347 14.6293 74.2847L10.4424 80.1529Z" fill="#FFB700"/>
<path fill-rule="evenodd" clip-rule="evenodd" d="M12.0915 106.979L12.134 108.073C12.134 108.073 11.5579 108.407 11.1294 108.073L11.0107 107.058L12.0626 106.978L12.0915 106.979Z" fill="#FAA098"/>
<path fill-rule="evenodd" clip-rule="evenodd" d="M12.1564 107.93L12.1281 107.916L12.1346 108.076C12.1346 108.076 12.1031 108.094 12.0497 108.117C12.0881 108.102 12.1253 108.083 12.1613 108.063L12.1564 107.93ZM11.1143 107.942L10.9907 108.018L10.7729 109.53C10.7729 109.53 11.0702 109.847 11.6327 109.73C12.1951 109.614 13.7321 109.222 13.7321 109.222L13.6112 108.704L12.157 107.93L12.1619 108.064C12.1259 108.085 12.0886 108.103 12.0503 108.119C11.8744 108.197 11.459 108.335 11.1301 108.077L11.1143 107.942Z" fill="#194294"/>
<path fill-rule="evenodd" clip-rule="evenodd" d="M7.17773 93.6513C7.70532 96.179 9.79114 98.1613 10.3753 100.246C10.3753 101.708 10.8164 106.714 10.8703 108.147L12.275 108.077C12.3702 107.719 13.6998 100.432 13.537 99.0847C13.298 97.1034 12.9289 95.9394 11.9483 93.1289C10.3258 93.6759 8.46375 93.735 7.17773 93.6513Z" fill="#F6FBFF"/>
<path fill-rule="evenodd" clip-rule="evenodd" d="M11.0552 83.7858C11.4962 83.567 12.3515 81.5223 11.9851 80.1455C11.7428 80.0361 11.5201 79.6997 11.5196 79.4535C11.5196 79.261 11.7047 79.1587 11.849 79.3332C11.9813 79.4935 12.0537 79.7954 12.2018 79.7708L12.5535 79.5744L12.7479 79.8769C12.9553 80.2708 13.3784 81.6913 13.0376 83.4182L11.0552 83.7858Z" fill="#E68178"/>
<path fill-rule="evenodd" clip-rule="evenodd" d="M8.26123 82.7211L8.26722 83.7604L9.76176 83.5323L9.76775 82.9361C10.9073 82.8015 10.4325 80.9631 10.1434 80.4019L8.95106 80.6934L8.26123 82.7211Z" fill="#FAA098"/>
<path fill-rule="evenodd" clip-rule="evenodd" d="M9.43368 82.4923C9.32097 82.9365 8.97633 83.2324 8.53369 83.2034C8.01536 83.1717 7.65384 82.6608 7.45076 82.0383C7.13606 81.0739 7.36854 79.8333 8.93713 79.6402C9.01118 79.2902 9.37923 78.9434 9.84365 79.1479C10.3081 79.3525 10.6407 80.2419 9.71135 80.9016C9.61444 81.2063 9.57578 81.8354 9.64057 82.1335C9.45981 81.7123 9.26272 81.628 9.10482 81.7801C8.94693 81.9322 9.11462 82.3769 9.4315 82.4912" fill="#194294"/>
<path fill-rule="evenodd" clip-rule="evenodd" d="M7.32666 93.6612C8.61485 93.7411 10.3261 93.6464 11.9486 93.129C11.2228 88.1961 11.9742 86.8691 11.145 84.3053C10.4976 82.306 7.81613 83.4558 7.23302 84.6335C6.83012 85.4474 5.702 89.3011 5.95571 93.4845C6.40771 93.5774 6.86596 93.6362 7.32666 93.6607" fill="#FF8A8A"/>
<path fill-rule="evenodd" clip-rule="evenodd" d="M8.84059 85.1792C8.88796 85.5134 9.2473 86.6719 11.0663 86.4745C12.8854 86.277 15.0834 85.3088 15.3001 82.8544C15.4362 81.1636 14.7855 79.3984 14.7855 79.3984C15.2211 78.9608 14.956 77.0616 14.069 77.1557C13.4527 77.246 13.3694 79.3126 14.0418 79.5625C14.0859 79.8185 14.3238 83.1142 12.5865 83.455C10.8491 83.7958 8.70502 83.1142 8.84059 85.1802" fill="#FAA098"/>
<path fill-rule="evenodd" clip-rule="evenodd" d="M8.8406 85.1794C8.88797 85.5136 9.24731 86.6722 11.0663 86.4747C11.5075 86.4269 11.9428 86.3353 12.366 86.2012C11.6065 85.8183 11.4181 84.1642 11.7262 83.5537C10.2175 83.6451 8.72681 83.4443 8.8406 85.1778" fill="#FF8A8A"/>
<path fill-rule="evenodd" clip-rule="evenodd" d="M14.6597 74.3271C14.847 74.3594 16.4934 74.8851 16.6197 76.5803C15.5983 76.4271 14.7544 74.8884 14.6597 74.3271Z" fill="#CF9910"/>
<defs>
<linearGradient id="paint0_linear_604_466" x1="102.912" y1="35.7435" x2="104.281" y2="34.8545" gradientUnits="userSpaceOnUse">
<stop stop-color="#F0B19C"/>
<stop offset="1" stop-color="#F5BCA9"/>
</linearGradient>
<linearGradient id="paint1_linear_604_466" x1="6668.21" y1="3560.7" x2="6615.68" y2="3501.99" gradientUnits="userSpaceOnUse">
<stop stop-color="#F0B19C"/>
<stop offset="1" stop-color="#F5BCA9"/>
</linearGradient>
<linearGradient id="paint2_linear_604_466" x1="21.8416" y1="43.7434" x2="21.8372" y2="44.2363" gradientUnits="userSpaceOnUse">
<stop stop-color="#F0A993"/>
<stop offset="1" stop-color="#F7BCAA"/>
</linearGradient>
</defs>
</svg>
