<svg width="331" height="116" viewBox="0 0 331 116" fill="none" xmlns="http://www.w3.org/2000/svg">
<path d="M28.71 1.62285H35.494L38.63 36.0549H38.758L42.086 1.62285H49.766L53.094 36.0549H53.222L56.358 1.62285H62.438L57.894 46.4229H49.126L45.926 16.2148H45.798L42.598 46.4229H33.254L28.71 1.62285ZM65.999 1.62285H73.039V46.4229H65.999V1.62285ZM87.4635 47.0629C84.0502 47.0629 81.4688 46.1029 79.7195 44.1829C77.9702 42.2202 77.0955 39.4255 77.0955 35.7989V33.2389H83.7515V36.3109C83.7515 39.2122 84.9675 40.6629 87.3995 40.6629C88.5942 40.6629 89.4902 40.3215 90.0875 39.6389C90.7275 38.9135 91.0475 37.7615 91.0475 36.1829C91.0475 34.3055 90.6208 32.6629 89.7675 31.2549C88.9142 29.8042 87.3355 28.0762 85.0315 26.0709C82.1302 23.5109 80.1035 21.2069 78.9515 19.1588C77.7995 17.0682 77.2235 14.7215 77.2235 12.1189C77.2235 8.57752 78.1195 5.84685 79.9115 3.92685C81.7035 1.96418 84.3062 0.982849 87.7195 0.982849C91.0902 0.982849 93.6288 1.96418 95.3355 3.92685C97.0848 5.84685 97.9595 8.62018 97.9595 12.2468V14.1029H91.3035V11.7989C91.3035 10.2629 91.0048 9.15352 90.4075 8.47085C89.8102 7.74552 88.9355 7.38285 87.7835 7.38285C85.4368 7.38285 84.2635 8.81218 84.2635 11.6708C84.2635 13.2922 84.6902 14.8069 85.5435 16.2148C86.4395 17.6229 88.0395 19.3295 90.3435 21.3349C93.2875 23.8949 95.3142 26.2202 96.4235 28.3109C97.5328 30.4015 98.0875 32.8549 98.0875 35.6709C98.0875 39.3402 97.1702 42.1562 95.3355 44.1189C93.5435 46.0815 90.9195 47.0629 87.4635 47.0629ZM102.124 1.62285H109.164V19.8629H116.716V1.62285H123.756V46.4229H116.716V26.2628H109.164V46.4229H102.124V1.62285ZM145.713 27.3509L137.201 1.62285H144.689L149.489 18.0709H149.617L154.417 1.62285H161.265L152.753 27.3509V46.4229H145.713V27.3509ZM173.488 47.0629C170.032 47.0629 167.386 46.0815 165.552 44.1189C163.717 42.1562 162.799 39.3829 162.799 35.7989V12.2468C162.799 8.66285 163.717 5.88952 165.552 3.92685C167.386 1.96418 170.032 0.982849 173.488 0.982849C176.944 0.982849 179.589 1.96418 181.424 3.92685C183.258 5.88952 184.176 8.66285 184.176 12.2468V35.7989C184.176 39.3829 183.258 42.1562 181.424 44.1189C179.589 46.0815 176.944 47.0629 173.488 47.0629ZM173.488 40.6629C175.92 40.6629 177.135 39.1909 177.135 36.2469V11.7989C177.135 8.85485 175.92 7.38285 173.488 7.38285C171.056 7.38285 169.84 8.85485 169.84 11.7989V36.2469C169.84 39.1909 171.056 40.6629 173.488 40.6629ZM199.177 47.0629C195.763 47.0629 193.161 46.1029 191.369 44.1829C189.577 42.2202 188.681 39.4255 188.681 35.7989V1.62285H195.72V36.3109C195.72 37.8469 196.019 38.9562 196.617 39.6389C197.257 40.3215 198.153 40.6629 199.305 40.6629C200.457 40.6629 201.331 40.3215 201.929 39.6389C202.569 38.9562 202.889 37.8469 202.889 36.3109V1.62285H209.673V35.7989C209.673 39.4255 208.777 42.2202 206.985 44.1829C205.193 46.1029 202.59 47.0629 199.177 47.0629ZM230.377 1.62285H239.913L247.209 46.4229H240.169L238.889 37.5269V37.6549H230.889L229.609 46.4229H223.081L230.377 1.62285ZM238.057 31.5749L234.921 9.43085H234.793L231.72 31.5749H238.057ZM250.624 1.62285H257.664V40.0229H269.248V46.4229H250.624V1.62285ZM272.624 1.62285H279.664V40.0229H291.248V46.4229H272.624V1.62285ZM0.90525 70.6228H7.94525V88.8629H15.4973V70.6228H22.5373V115.423H15.4973V95.2628H7.94525V115.423H0.90525V70.6228ZM33.2203 70.6228H42.7563L50.0523 115.423H43.0123L41.7323 106.527V106.655H33.7323L32.4523 115.423H25.9243L33.2203 70.6228ZM40.9003 100.575L37.7643 78.4309H37.6363L34.5642 100.575H40.9003ZM53.4678 70.6228H63.8358C67.3344 70.6228 69.9584 71.5615 71.7078 73.4389C73.4571 75.3162 74.3318 78.0682 74.3318 81.6949V86.1108C74.3318 89.7375 73.4571 92.4895 71.7078 94.3668C69.9584 96.2442 67.3344 97.1828 63.8358 97.1828H60.5078V115.423H53.4678V70.6228ZM63.8358 90.7829C64.9878 90.7829 65.8411 90.4629 66.3958 89.8229C66.9931 89.1829 67.2917 88.0948 67.2917 86.5588V81.2468C67.2917 79.7108 66.9931 78.6228 66.3958 77.9828C65.8411 77.3428 64.9878 77.0229 63.8358 77.0229H60.5078V90.7829H63.8358ZM78.1553 70.6228H88.5233C92.0219 70.6228 94.6459 71.5615 96.3953 73.4389C98.1446 75.3162 99.0193 78.0682 99.0193 81.6949V86.1108C99.0193 89.7375 98.1446 92.4895 96.3953 94.3668C94.6459 96.2442 92.0219 97.1828 88.5233 97.1828H85.1953V115.423H78.1553V70.6228ZM88.5233 90.7829C89.6753 90.7829 90.5286 90.4629 91.0833 89.8229C91.6806 89.1829 91.9792 88.0948 91.9792 86.5588V81.2468C91.9792 79.7108 91.6806 78.6228 91.0833 77.9828C90.5286 77.3428 89.6753 77.0229 88.5233 77.0229H85.1953V90.7829H88.5233ZM108.994 96.3509L100.482 70.6228H107.97L112.77 87.0709H112.898L117.698 70.6228H124.546L116.034 96.3509V115.423H108.994V96.3509ZM137.968 70.6228H146.8L153.648 97.4389H153.776V70.6228H160.048V115.423H152.816L144.368 82.7188H144.24V115.423H137.968V70.6228ZM165.28 70.6228H184.48V77.0229H172.32V88.8629H181.984V95.2628H172.32V109.023H184.48V115.423H165.28V70.6228ZM186.866 70.6228H193.65L196.786 105.055H196.914L200.242 70.6228H207.922L211.25 105.055H211.378L214.514 70.6228H220.594L216.05 115.423H207.282L204.082 85.2148H203.954L200.754 115.423H191.41L186.866 70.6228ZM240.869 96.3509L232.357 70.6228H239.845L244.645 87.0709H244.773L249.573 70.6228H256.421L247.909 96.3509V115.423H240.869V96.3509ZM259.593 70.6228H278.793V77.0229H266.633V88.8629H276.297V95.2628H266.633V109.023H278.793V115.423H259.593V70.6228ZM288.283 70.6228H297.819L305.115 115.423H298.075L296.795 106.527V106.655H288.795L287.515 115.423H280.987L288.283 70.6228ZM295.963 100.575L292.827 78.4309H292.699L289.627 100.575H295.963ZM308.53 70.6228H318.962C322.589 70.6228 325.234 71.4762 326.898 73.1828C328.562 74.8468 329.394 77.4282 329.394 80.9268V83.6789C329.394 88.3295 327.858 91.2735 324.786 92.5109V92.6389C326.493 93.1509 327.688 94.1962 328.37 95.7749C329.096 97.3535 329.458 99.4655 329.458 102.111V109.983C329.458 111.263 329.501 112.308 329.586 113.119C329.672 113.887 329.885 114.655 330.226 115.423H323.058C322.802 114.698 322.632 114.015 322.546 113.375C322.461 112.735 322.418 111.583 322.418 109.919V101.727C322.418 99.6789 322.077 98.2495 321.394 97.4389C320.754 96.6282 319.624 96.2229 318.002 96.2229H315.57V115.423H308.53V70.6228ZM318.13 89.8229C319.538 89.8229 320.584 89.4602 321.266 88.7348C321.992 88.0095 322.354 86.7935 322.354 85.0868V81.6309C322.354 80.0095 322.056 78.8362 321.458 78.1109C320.904 77.3855 320.008 77.0229 318.77 77.0229H315.57V89.8229H318.13Z" fill="url(#paint0_linear_604_468)"/>
<defs>
<linearGradient id="paint0_linear_604_468" x1="165" y1="-11.5771" x2="165" y2="126.423" gradientUnits="userSpaceOnUse">
<stop stop-color="#29B0C2"/>
<stop offset="1" stop-color="#73D37D" stop-opacity="0.34"/>
</linearGradient>
</defs>
</svg>
